<?xml version="1.0" encoding="utf-8"?>
<!-- Generator: Adobe Illustrator 21.0.0, SVG Export Plug-In . SVG Version: 6.00 Build 0)  -->
<svg version="1.1" id="圖層_1" xmlns="http://www.w3.org/2000/svg" xmlns:xlink="http://www.w3.org/1999/xlink" x="0px" y="0px"
	 viewBox="0 0 1505 946.1" style="enable-background:new 0 0 1505 946.1;" xml:space="preserve">
<style type="text/css">
	.st0{clip-path:url(#SVGID_2_);}
	.st1{opacity:0.28;}
	.st2{fill:none;stroke:#FFFFFF;stroke-width:3.48;stroke-miterlimit:10;}
</style>
<title>資產 2</title>
<g>
	<g id="圖層_2">
		<g id="圖層_1-2">
			<g>
				<defs>
					<rect id="SVGID_1_" x="-415" y="-10.6" width="1920" height="960"/>
				</defs>
				<clipPath id="SVGID_2_">
					<use xlink:href="#SVGID_1_"  style="overflow:visible;"/>
				</clipPath>
				<g class="st0">
					<g class="st1">
						<path class="st2" d="M1491.5,949.9c0,0-28.7-34-31.3-54.9s10.4-28.7-2.6-34s-23.5,7.8-28.7,26.1s-5.2,31.3-23.5,20.9
							s-47-13.1-65.3-20.9s-130.7-41.8-138.5-41.8s-7.8,20.9,15.7,28.7s138.5,75.8,138.5,75.8"/>
						<path class="st2" d="M1261.6,947.3c0,0-36.6-41.8-96.7-70.5S927.1,787.9,908.8,780s-70.6-47-130.6,0c0,0-47,52.3-31.3,0
							c0,0,28.7-96.7-2.6-156.8s-88.8-141.1-88.8-141.1s-18.3-47,18.3-31.4c0,0,67.9,78.4,101.9,128s39.2,107.1,115,133.3
							s284.8,88.8,386.7,62.7c0,0,73.2-15.7,125.4-67.9s88.8-107.1,88.8-107.1l28.7-20.9"/>
						<path class="st2" d="M1520.2,892.4c0,0-91.4-52.3-26.1-180.3c0,0,13.1-54.9-26.1-34s-44.4,75.8-65.3,99.3
							s-15.7,62.7-86.2,39.2"/>
						<path class="st2" d="M1191,947.3c0,0-47.1-67.9-172.5-104.5s-188.1-60.1-237.8-26.1s-107.1,78.4-143.7,81s-49.7,5.2-31.3-20.9
							c0,0,88.8-62.7,101.9-112.3s28.7-115-101.9-308.3c0,0-86.2-83.6-143.7-109.7c0,0-96.7-34-15.7-28.7
							c0,0,164.6,44.4,253.4,112.4s101.9,112.3,130.6,156.8s34,88.8,227.3,125.4c0,0,177.7,41.8,279.6-23.5l182.9-159.4"/>
						<path class="st2" d="M1525.5,484.8c0,0-154.2,109.7-196,146.3s-112.3,41.8-156.8,34s-164.6,0-243-107.1
							S825.2,401.2,770.3,375.1S621.4,320.2,590,315c-31.3-5.2-94.1-15.7-112.3-23.5s-94.1-31.4-112.3-36.6s-47,2.6-49.7,26.1
							c0,0,5.2,26.1,36.6,49.6s151.5,148.9,172.4,180.3c20.9,31.4,172.4,196,31.3,313.5c0,0-99.3,94.1-107.1,120.2"/>
						<path class="st2" d="M490.8,952.5c0,0,67.9-75.8,99.3-112.3s104.5-96.7,70.6-216.9c0,0-70.5-143.7-96.7-169.8
							S420.2,351.5,407.1,343.7s-57.5-34-39.2-62.7c0,0,36.6,7.8,49.7,10.5s101.9,36.6,128,36.6c0,0,148.9,44.4,182.9,67.9
							S833,505.7,851.3,539.7s73.2,130.7,240.4,148.9c0,0,86.2,13.1,115,13.1H1178"/>
						<path class="st2" d="M1522.9,432.5c0,0-143.7,117.6-175.1,135.9s-101.9,78.4-287.4,20.9c0,0-94.1-57.5-148.9-156.8
							c0,0-83.6-94.1-143.7-107.1S608.3,294,584.8,286.2S438.5,257.5,412.4,247s-75.8-39.2-99.3-39.2s-52.3,18.3-41.8,78.4
							c0,0,23.5,54.9,47,67.9s94.1,75.8,104.5,91.5S608.3,615.4,530,764.3c0,0-112.3,159.4-130.6,182.9"/>
						<path class="st2" d="M328.8,944.7c0,0,91.5-159.4,112.3-198.6s20.9-104.5,13.1-130.6s-73.2-128-122.8-182.9
							S211.2,322.8,198.1,309.7s-62.7-83.6-36.6-122.8c0,0,15.7-57.5,135.9-44.4c0,0,196,62.7,224.7,67.9
							c28.7,5.2,154.2,31.4,188.1,41.8c34,10.5,133.3,60.1,148.9,65.3s67.9,26.1,128,99.3s135.9,177.7,363.2,88.8
							c0,0,146.3-99.3,169.8-125.4"/>
						<path class="st2" d="M1525.5,288.8c0,0-104.5,164.6-240.4,169.8c0,0-101.9,31.4-240.4-57.5c0,0-99.3-78.4-141.1-122.8
							s-177.6-81-224.7-91.4S564,163.4,496,132.1S211.2,6.6,101.4,38c0,0-107.1,7.8-99.3,88.8s7.8,128,73.2,177.7
							s148.9,112.4,182.9,148.9s204.6,174,109.8,292.6c-10.5,13.1-122.8,167.3-154.2,201.2"/>
						<path class="st2" d="M1520.2,173.9c0,0-94.1,62.7-117.6,88.8s-175.1,101.9-318.8-18.3c0,0-250.8-222.1-279.6-243"/>
						<path class="st2" d="M1094.3,949.9C1083.9,942,937.6,848,867,848c0,0-54.9,2.6-96.7,26.1s-101.9,60.1-135.9,60.1
							s-73.2,7.8-78.4,13.1"/>
						<path class="st2" d="M976.8,949.9c0,0-73.2-47-107.1-49.7s-60.1,5.2-86.2,13.1s-57.5,36.6-83.6,36.6"/>
					</g>
				</g>
			</g>
		</g>
	</g>
</g>
</svg>
