<?xml version="1.0" encoding="utf-8"?>
<!-- Generator: Adobe Illustrator 21.0.0, SVG Export Plug-In . SVG Version: 6.00 Build 0)  -->
<svg version="1.1" id="圖層_1" xmlns="http://www.w3.org/2000/svg" xmlns:xlink="http://www.w3.org/1999/xlink" x="0px" y="0px"
	 viewBox="0 0 1526.9 953.7" style="enable-background:new 0 0 1526.9 953.7;" xml:space="preserve">
<style type="text/css">
	.st0{clip-path:url(#SVGID_2_);}
	.st1{opacity:0.28;}
	.st2{fill:none;stroke:#FFFFFF;stroke-width:3.5146;stroke-miterlimit:10;}
</style>
<title>資產 4</title>
<g>
	<g id="圖層_2">
		<g id="圖層_1-2">
			<g>
				<defs>
					<rect id="SVGID_1_" x="-5.6" y="-3.2" width="1939.1" height="969.5"/>
				</defs>
				<clipPath id="SVGID_2_">
					<use xlink:href="#SVGID_1_"  style="overflow:visible;"/>
				</clipPath>
				<g class="st0">
					<g class="st1">
						<path class="st2" d="M8-3.7c0,0,29,34.3,31.7,55.4s-10.6,29,2.6,34.3s23.8-7.9,29-26.4S76.6,28,95,38.6s47.5,13.2,66,21.1
							s131.9,42.2,139.9,42.2c7.9,0,7.9-21.1-15.8-29C261.3,64.9,145.2-3.7,145.2-3.7"/>
						<path class="st2" d="M240.2-1.1c0,0,37,42.2,97.6,71.3s240.1,89.7,258.6,97.6c18.5,7.9,71.3,47.5,131.9,0
							c0,0,47.5-52.8,31.7,0c0,0-29,97.6,2.6,158.3s89.7,142.5,89.7,142.5s18.5,47.5-18.5,31.7c0,0-68.6-79.2-102.9-129.3
							s-39.6-108.2-116.1-134.6s-287.6-89.8-390.5-63.4c0,0-73.9,15.8-126.7,68.6S8,349.9,8,349.9l-29,21.1"/>
						<path class="st2" d="M-21.1,54.4c0,0,92.4,52.8,26.4,182.1c0,0-13.2,55.4,26.4,34.3s44.9-76.5,66-100.3s15.9-63.4,87.1-39.6"
							/>
						<path class="st2" d="M311.4-1.1c0,0,47.5,68.6,174.2,105.5s190,60.7,240.1,26.4S833.9,51.7,870.9,49
							c36.9-2.7,50.1-5.3,31.7,21.1c0,0-89.7,63.3-102.9,113.5s-29,116.1,102.9,311.4c0,0,87.1,84.4,145.1,110.8
							c0,0,97.6,34.3,15.8,29c0,0-166.2-44.9-256-113.5S704.6,408,675.6,363.1S641.3,273.4,446,236.5c0,0-179.4-42.2-282.4,23.8
							L-21.1,421.1"/>
						<path class="st2" d="M-26.3,466c0,0,155.7-110.8,197.9-147.8s113.5-42.2,158.3-34.3c44.9,7.9,166.2,0,245.4,108.2
							s105.5,158.4,160.9,184.7c55.4,26.4,150.4,55.4,182.1,60.7s95,15.8,113.5,23.8s95,31.7,113.5,36.9s47.5-2.6,50.1-26.4
							c0,0-5.3-26.4-36.9-50.1c-31.7-23.8-153.1-150.4-174.2-182.1S810.2,241.7,952.7,123c0,0,100.3-95,108.2-121.4"/>
						<path class="st2" d="M1018.6-6.3c0,0-68.6,76.5-100.3,113.5s-105.6,97.6-71.3,219c0,0,71.3,145.1,97.6,171.5
							s145.1,102.9,158.3,110.9c13.2,7.9,58.1,34.3,39.6,63.3c0,0-36.9-7.9-50.1-10.6c-13.2-2.6-102.9-36.9-129.3-36.9
							c0,0-150.4-44.9-184.7-68.6C744.2,532,673,444.9,654.5,410.6s-73.9-131.9-242.8-150.4c0,0-87.1-13.2-116.1-13.2h29.1"/>
						<path class="st2" d="M-23.7,518.8c0,0,145.1-118.7,176.8-137.2s102.9-79.2,290.3-21.1c0,0,95,58.1,150.4,158.3
							c0,0,84.4,95,145.1,108.2c60.7,13.2,161,31.7,184.7,39.6c23.7,7.9,147.8,29,174.2,39.6c26.4,10.6,76.5,39.6,100.3,39.6
							c23.8,0,52.8-18.5,42.2-79.2c0,0-23.8-55.4-47.5-68.6c-23.7-13.2-95-76.5-105.6-92.4c-10.6-15.8-187.4-171.5-108.2-321.9
							c0,0,113.5-161,131.9-184.7"/>
						<path class="st2" d="M1182.3,1.6c0,0-92.4,161-113.5,200.6c-21.1,39.6-21.1,105.6-13.2,131.9c7.9,26.4,73.9,129.3,124,184.7
							c50.1,55.4,121.4,110.8,134.6,124s63.3,84.4,36.9,124c0,0-15.8,58.1-137.2,44.9c0,0-197.9-63.3-226.9-68.6
							s-155.7-31.7-190-42.2c-34.3-10.6-134.6-60.7-150.4-66c-15.8-5.3-68.6-26.4-129.3-100.3S380,355.2,150.5,444.9
							c0,0-147.8,100.3-171.5,126.7"/>
						<path class="st2" d="M-26.3,663.9c0,0,105.6-166.2,242.8-171.5c0,0,102.9-31.7,242.8,58.1c0,0,100.3,79.2,142.5,124
							s179.4,81.8,226.9,92.4c47.5,10.6,116.1,23.8,184.7,55.4s287.7,126.6,398.5,95c0,0,108.2-7.9,100.3-89.7
							c-7.9-81.8-7.9-129.3-73.9-179.4c-66-50.2-150.4-113.5-184.7-150.4s-206.7-175.7-110.8-295.5c10.6-13.2,124-168.9,155.7-203.2
							"/>
						<path class="st2" d="M-21.1,780c0,0,95-63.3,118.7-89.7s176.8-102.9,321.9,18.5c0,0,253.3,224.3,282.4,245.4"/>
						<path class="st2" d="M409.1-3.7C419.6,4.2,567.4,99.2,638.6,99.2c0,0,55.4-2.6,97.6-26.4c42.2-23.8,102.9-60.7,137.2-60.7
							c34.3,0,73.9-7.9,79.2-13.2"/>
						<path class="st2" d="M527.8-3.7c0,0,73.9,47.5,108.2,50.1c34.3,2.7,60.7-5.3,87.1-13.2c26.4-7.9,58-37,84.4-37"/>
					</g>
				</g>
			</g>
		</g>
	</g>
</g>
</svg>
