<?xml version="1.0" encoding="utf-8"?>
<!-- Generator: Adobe Illustrator 21.0.0, SVG Export Plug-In . SVG Version: 6.00 Build 0)  -->
<svg version="1.1" id="圖層_1" xmlns="http://www.w3.org/2000/svg" xmlns:xlink="http://www.w3.org/1999/xlink" x="0px" y="0px"
	 viewBox="0 0 414 736" style="enable-background:new 0 0 414 736;" xml:space="preserve">
<style type="text/css">
	.st0{clip-path:url(#SVGID_2_);}
	.st1{opacity:0.28;}
	.st2{fill:none;stroke:#FFFFFF;stroke-width:2.13;stroke-miterlimit:10;}
</style>
<title>資產 6</title>
<g>
	<g id="圖層_2">
		<g id="圖層_1-2">
			<g id="_剪裁群組_">
				<g>
					<defs>
						<rect id="SVGID_1_" width="414" height="736"/>
					</defs>
					<clipPath id="SVGID_2_">
						<use xlink:href="#SVGID_1_"  style="overflow:visible;"/>
					</clipPath>
					<g class="st0">
						<g id="_群組_" class="st1">
							<path id="_路徑_" class="st2" d="M-437.5-5.5c0,0,17.6,20.8,19.2,33.6c1.6,12.8-6.4,17.6,1.6,20.8s14.4-4.8,17.6-16
								c3.2-11.2,3.2-19.2,14.4-12.8c11.2,6.4,28.8,8,40,12.8s80,25.6,84.8,25.6s4.8-12.8-9.6-17.6c-14.4-4.8-84.8-46.4-84.8-46.4"
								/>
							<path id="_路徑_2" class="st2" d="M-296.7-3.9c0,0,22.4,25.6,59.2,43.2S-91.9,93.7-80.8,98.5s43.2,28.8,80,0
								c0,0,28.8-32,19.2,0c0,0-17.6,59.2,1.6,96s54.4,86.4,54.4,86.4s11.2,28.8-11.2,19.2c0,0-41.6-48-62.4-78.4
								s-24-65.6-70.4-81.6s-174.4-54.4-236.8-38.4c0,0-44.8,9.6-76.8,41.6c-20,20.2-38.2,42.2-54.4,65.6l-17.6,12.8"/>
							<path id="_路徑_3" class="st2" d="M-455.1,29.7c0,0,56,32,16,110.4c0,0-8,33.6,16,20.8s27.2-46.4,40-60.8
								c12.8-14.4,9.6-38.4,52.8-24"/>
							<path id="_路徑_4" class="st2" d="M-253.5-3.9c0,0,28.8,41.6,105.6,64s115.2,36.8,145.6,16s65.6-48,88-49.6
								s30.4-3.2,19.2,12.8c0,0-54.4,38.4-62.4,68.8s-17.7,70.4,62.3,188.8c0,0,52.8,51.2,88,67.2c0,0,59.2,20.8,9.6,17.6
								c0,0-100.8-27.2-155.2-68.8s-62.4-68.8-80-96s-20.8-54.4-139.2-76.8c0,0-108.8-25.6-171.2,14.4l-112,97.6"/>
							<path id="_路徑_5" class="st2" d="M-458.3,279.3c0,0,94.4-67.2,120-89.6c25.6-22.4,68.8-25.6,96-20.8s100.8,0,148.8,65.6
								s64,96,97.6,112s91.2,33.6,110.4,36.8s57.6,9.6,68.8,14.4s57.6,19.2,68.8,22.4s28.8-1.6,30.4-16c0,0-3.2-16-22.4-30.4
								s-92.8-91.2-105.6-110.4s-105.6-120-19.2-192c0,0,60.8-57.6,65.6-73.6"/>
							<path id="_路徑_6" class="st2" d="M175.2-7.1c0,0-41.6,46.4-60.8,68.8s-64,59.2-43.2,132.8c0,0,43.2,88,59.2,104
								s88,62.4,96,67.2s35.2,20.8,24,38.4c0,0-22.4-4.8-30.4-6.4s-62.4-22.4-78.4-22.4c0,0-91.2-27.2-112-41.6s-64-67.2-75.2-88
								s-44.8-80-147.2-91.2c0,0-52.8-8-70.4-8h17.6"/>
							<path id="_路徑_7" class="st2" d="M-456.7,311.3c0,0,88-72,107.2-83.2s62.4-48,176-12.8c0,0,57.6,35.2,91.2,96
								c0,0,51.2,57.6,88,65.6s97.6,19.2,112,24s89.6,17.6,105.6,24s46.4,24,60.8,24s32-11.2,25.6-48c0,0-14.4-33.6-28.8-41.6
								s-57.6-46.4-64-56s-113.6-104-65.6-195.2c0,0,68.8-97.6,80-112"/>
							<path id="_路徑_8" class="st2" d="M274.4-2.3c0,0-56,97.6-68.8,121.6s-12.8,64-8,80s44.8,78.4,75.2,112
								s73.6,67.2,81.6,75.2s38.4,51.2,22.4,75.2c0,0-9.6,35.2-83.2,27.2c0,0-120-38.4-137.6-41.6s-94.4-19.2-115.2-25.6
								s-81.6-36.8-91.2-40s-41.6-16-78.4-60.8s-83.2-108.8-222.4-54.4c0,0-89.6,60.8-104,76.8"/>
							<path id="_路徑_9" class="st2" d="M-458.3,399.3c0,0,64-100.8,147.2-104c0,0,62.4-19.2,147.2,35.2c0,0,60.8,48,86.4,75.2
								s108.8,49.6,137.6,56c28.8,6.4,70.4,14.4,112,33.6s174.4,76.8,241.6,57.6c0,0,65.6-4.8,60.8-54.4s-4.8-78.4-44.8-108.8
								s-91.2-68.8-112-91.2s-125.3-106.5-67.2-179.2c6.4-8,75.2-102.4,94.4-123.2"/>
							<path id="_路徑_10" class="st2" d="M-455.1,469.7c0,0,57.6-38.4,72-54.4c14.4-16,107.2-62.4,195.2,11.2
								c0,0,153.6,136,171.2,148.8"/>
							<path id="_路徑_11" class="st2" d="M-194.3-5.5c6.4,4.8,96,62.4,139.2,62.4c0,0,33.6-1.6,59.2-16S66.4,4.1,87.2,4.1
								s44.8-4.8,48-8"/>
							<path id="_路徑_12" class="st2" d="M-122.4-5.5c0,0,44.8,28.8,65.6,30.4s36.8-3.2,52.8-8S31.2-5.5,47.2-5.5"/>
						</g>
					</g>
				</g>
			</g>
		</g>
	</g>
</g>
</svg>
