<svg xmlns="http://www.w3.org/2000/svg" viewBox="0 0 61.99 61.99"><defs><style>.cls-1{fill:#fff;}</style></defs><title>資產 1</title><g id="圖層_2" data-name="圖層 2"><g id="圖層_1-2" data-name="圖層 1"><path class="cls-1" d="M31,62A31,31,0,1,1,62,31,31,31,0,0,1,31,62ZM31,2.1A28.89,28.89,0,1,0,59.89,31,28.93,28.93,0,0,0,31,2.1Z"/><path class="cls-1" d="M29.41,41.88a1,1,0,0,1-.74-.31L18.4,31.29a1.05,1.05,0,0,1,0-1.49L28.67,19.53A1.05,1.05,0,0,1,30.15,21l-9.53,9.53,9.53,9.54a1,1,0,0,1-.74,1.79Z"/><rect class="cls-1" x="20.36" y="29.15" width="25.23" height="2.02" rx="0.76" ry="0.76"/></g></g></svg>