<svg xmlns="http://www.w3.org/2000/svg" xmlns:xlink="http://www.w3.org/1999/xlink" viewBox="0 0 84.66 95.35"><defs><style>.cls-1,.cls-10,.cls-11,.cls-12,.cls-2,.cls-3,.cls-4,.cls-5,.cls-6,.cls-7,.cls-8,.cls-9{fill:none;stroke-linecap:round;stroke-linejoin:round;stroke-width:4.93px;}.cls-1{stroke:url(#linear-gradient);}.cls-2{stroke:url(#linear-gradient-2);}.cls-3{stroke:url(#linear-gradient-3);}.cls-4{stroke:url(#linear-gradient-4);}.cls-5{stroke:url(#linear-gradient-5);}.cls-6{stroke:url(#linear-gradient-6);}.cls-7{stroke:url(#linear-gradient-7);}.cls-8{stroke:url(#linear-gradient-8);}.cls-9{stroke:url(#linear-gradient-9);}.cls-10{stroke:url(#linear-gradient-10);}.cls-11{stroke:url(#linear-gradient-11);}.cls-12{stroke:url(#linear-gradient-12);}</style><linearGradient id="linear-gradient" x1="9.86" y1="52.81" x2="14.8" y2="52.81" gradientUnits="userSpaceOnUse"><stop offset="0" stop-color="#f6ce00"/><stop offset="0.08" stop-color="#f5c303"/><stop offset="0.31" stop-color="#f3a70a"/><stop offset="0.54" stop-color="#f1930f"/><stop offset="0.77" stop-color="#f08712"/><stop offset="1" stop-color="#f08313"/></linearGradient><linearGradient id="linear-gradient-2" x1="19.73" y1="58.56" x2="24.66" y2="58.56" xlink:href="#linear-gradient"/><linearGradient id="linear-gradient-3" x1="29.18" y1="63.5" x2="34.11" y2="63.5" xlink:href="#linear-gradient"/><linearGradient id="linear-gradient-4" x1="39.86" y1="46.53" x2="84.11" y2="46.53" xlink:href="#linear-gradient"/><linearGradient id="linear-gradient-5" x1="40.82" y1="58.41" x2="83.84" y2="58.41" xlink:href="#linear-gradient"/><linearGradient id="linear-gradient-6" x1="41.37" y1="69.5" x2="83.56" y2="69.5" xlink:href="#linear-gradient"/><linearGradient id="linear-gradient-7" x1="11.51" y1="30.3" x2="53.43" y2="30.3" xlink:href="#linear-gradient"/><linearGradient id="linear-gradient-8" x1="22.19" y1="24" x2="63.84" y2="24" xlink:href="#linear-gradient"/><linearGradient id="linear-gradient-9" x1="32.88" y1="18.04" x2="72.06" y2="18.04" xlink:href="#linear-gradient"/><linearGradient id="linear-gradient-10" x1="39.04" y1="69.48" x2="43.97" y2="69.48" xlink:href="#linear-gradient"/><linearGradient id="linear-gradient-11" x1="0" y1="24.86" x2="83.56" y2="24.86" xlink:href="#linear-gradient"/><linearGradient id="linear-gradient-12" x1="0" y1="58.77" x2="84.66" y2="58.77" xlink:href="#linear-gradient"/></defs><title>資產 17</title><g id="圖層_2" data-name="圖層 2"><g id="圖層_1-2" data-name="圖層 1"><line class="cls-1" x1="12.33" y1="30.82" x2="12.33" y2="74.8"/><line class="cls-2" x1="22.19" y1="36.58" x2="22.19" y2="80.55"/><line class="cls-3" x1="31.65" y1="41.51" x2="31.65" y2="85.48"/><line class="cls-4" x1="42.33" y1="58.36" x2="81.65" y2="34.71"/><line class="cls-5" x1="43.29" y1="69.78" x2="81.37" y2="47.04"/><line class="cls-6" x1="43.84" y1="80.46" x2="81.1" y2="58.54"/><line class="cls-7" x1="13.97" y1="20.14" x2="50.96" y2="40.46"/><line class="cls-8" x1="24.66" y1="13.56" x2="61.37" y2="34.43"/><line class="cls-9" x1="35.34" y1="8.22" x2="69.59" y2="27.86"/><line class="cls-10" x1="41.51" y1="47.26" x2="41.51" y2="91.7"/><polygon class="cls-11" points="2.47 25.07 42.33 2.47 81.1 24.02 42.33 47.26 2.47 25.07"/><polyline class="cls-12" points="2.47 25.07 2.47 70.69 41.1 92.88 82.19 70.69 82.19 24.66"/></g></g></svg>