<?xml version="1.0" encoding="utf-8"?>
<!-- Generator: Adobe Illustrator 21.0.0, SVG Export Plug-In . SVG Version: 6.00 Build 0)  -->
<svg version="1.1" id="圖層_1" xmlns="http://www.w3.org/2000/svg" xmlns:xlink="http://www.w3.org/1999/xlink" x="0px" y="0px"
	 viewBox="0 0 12 12" style="enable-background:new 0 0 12 12;" xml:space="preserve">
<style type="text/css">
	.st0{fill:none;stroke:#ED722C;stroke-width:0.44;stroke-linecap:round;stroke-linejoin:round;}
</style>
<title>資產 40</title>
<g id="圖層_2">
	<g id="圖層_1-2">
		<path id="_路徑_" class="st0" d="M10.7,10.9c0,0-3.8-0.3-5.3-1.6C3.8,7.9,1.5,6.3,1.1,1.4c0.4-0.2,0.9-0.4,1.4-0.3
			c0.6,0,1.1,0.2,1.6,0.4c0,0-0.1,1-0.1,1.4s0.1,2.1,0.1,2.1c0.6,0.9,1.2,1.7,1.9,2.5C6.6,7.8,7.2,8,7.9,8C8.4,8,8.3,7.7,8.3,7.7
			l2.2,0.2l0.4,0.8L10.7,10.9z"/>
	</g>
</g>
</svg>
