<svg xmlns="http://www.w3.org/2000/svg" xmlns:xlink="http://www.w3.org/1999/xlink" viewBox="0 0 83.29 93.7"><defs><style>.cls-1,.cls-2,.cls-3,.cls-4,.cls-5,.cls-6{fill:none;stroke-linecap:round;stroke-linejoin:round;stroke-width:4.93px;}.cls-1{stroke:url(#linear-gradient);}.cls-2{stroke:url(#linear-gradient-2);}.cls-3{stroke:url(#linear-gradient-3);}.cls-4{stroke:url(#linear-gradient-5);}.cls-5{stroke:url(#linear-gradient-6);}.cls-6{stroke:url(#linear-gradient-7);}</style><linearGradient id="linear-gradient" x1="0.55" y1="46.3" x2="82.93" y2="46.3" gradientUnits="userSpaceOnUse"><stop offset="0" stop-color="#f6ce00"/><stop offset="0.08" stop-color="#f5c303"/><stop offset="0.31" stop-color="#f3a70a"/><stop offset="0.54" stop-color="#f1930f"/><stop offset="0.77" stop-color="#f08712"/><stop offset="1" stop-color="#f08313"/></linearGradient><linearGradient id="linear-gradient-2" x1="40.28" y1="46.5" x2="45.21" y2="46.5" xlink:href="#linear-gradient"/><linearGradient id="linear-gradient-3" x1="0" y1="46.3" x2="83.29" y2="46.3" xlink:href="#linear-gradient"/><linearGradient id="linear-gradient-5" x1="21.37" y1="46.3" x2="64.11" y2="46.3" xlink:href="#linear-gradient"/><linearGradient id="linear-gradient-6" x1="21.37" y1="46.61" x2="64.02" y2="46.61" xlink:href="#linear-gradient"/><linearGradient id="linear-gradient-7" x1="0" y1="46.85" x2="83.29" y2="46.85" xlink:href="#linear-gradient"/></defs><title>資產 19</title><g id="圖層_2" data-name="圖層 2"><g id="圖層_1-2" data-name="圖層 1"><line class="cls-1" x1="3.01" y1="46.3" x2="80.46" y2="46.3"/><line class="cls-2" x1="42.74" y1="3.62" x2="42.74" y2="89.38"/><line class="cls-3" x1="2.47" y1="23.84" x2="80.83" y2="68.77"/><line class="cls-3" x1="80.83" y1="23.84" x2="2.47" y2="68.77"/><line class="cls-4" x1="61.65" y1="13.97" x2="23.84" y2="78.63"/><line class="cls-5" x1="23.84" y1="13.43" x2="61.56" y2="79.79"/><path class="cls-6" d="M2.47,23.84,43.56,2.47,80.83,23.84V68.77L42.47,91.24l-40-22.47S3,23.84,2.47,23.84Z"/></g></g></svg>