<svg xmlns="http://www.w3.org/2000/svg" viewBox="0 0 64.35 19.34"><defs><style>.cls-1{fill:#fff;}</style></defs><title>資產 38</title><g id="圖層_2" data-name="圖層 2"><g id="圖層_1-2" data-name="圖層 1"><g id="_群組_" data-name="&lt;群組&gt;"><g id="_群組_2" data-name="&lt;群組&gt;"><g id="_群組_3" data-name="&lt;群組&gt;"><ellipse id="_路徑_" data-name="&lt;路徑&gt;" class="cls-1" cx="9.6" cy="9.63" rx="0.86" ry="0.87" transform="translate(-3.02 14.71) rotate(-67.03)"/><path id="_路徑_2" data-name="&lt;路徑&gt;" class="cls-1" d="M17.57,13a8.64,8.64,0,1,1-3.3-10.58l.43-1A9.49,9.49,0,0,0,13.44.77,9.72,9.72,0,1,0,19.2,11.21l-1-.44A8.55,8.55,0,0,1,17.57,13Z"/><g id="_群組_4" data-name="&lt;群組&gt;"><path id="_路徑_3" data-name="&lt;路徑&gt;" class="cls-1" d="M10.3,7.23a3,3,0,0,1,1.21.34c-.06-.16-.13-.32-.22-.48L9.38,3.31l-.85.43Z"/><path id="_複合路徑_" data-name="&lt;複合路徑&gt;" class="cls-1" d="M9.2,8.07a1.64,1.64,0,0,0-.55.28A2.6,2.6,0,0,0,7.6,9.51c-.07-.11-.14-.23-.21-.36l-2-3.84-.85.43L6.53,9.56a4.53,4.53,0,0,0,.91,1.26h0a2.44,2.44,0,0,0,1.15.62h0a2.58,2.58,0,0,0,1.68-.29l.05,0a1.63,1.63,0,0,0,.5-.33,2.47,2.47,0,0,0,.78-1c.07.11.14.23.21.36l2,3.84.85-.43L12.67,9.78a4.49,4.49,0,0,0-.91-1.26h0a2.54,2.54,0,0,0-1.51-.65A2.67,2.67,0,0,0,9.2,8.07Zm1.27,1.84a.87.87,0,1,1-.56-1.08A.86.86,0,0,1,10.47,9.91Z"/><path id="_路徑_4" data-name="&lt;路徑&gt;" class="cls-1" d="M7.7,11.78c.06.15.13.31.21.47L9.83,16l.85-.43L8.92,12.14A3.31,3.31,0,0,1,7.7,11.78Z"/></g></g></g><g id="_群組_5" data-name="&lt;群組&gt;"><g id="_群組_6" data-name="&lt;群組&gt;"><path id="_複合路徑_2" data-name="&lt;複合路徑&gt;" class="cls-1" d="M31.41,1.21h2.39V1.7H31.34A3.9,3.9,0,0,0,28.1,3.37a4,4,0,0,0-.71,2.26,4,4,0,0,0,1.35,2.94,3.5,3.5,0,0,0,1.45.77,3.41,3.41,0,0,0,1.35.18h2.26V10H31.2A4.38,4.38,0,0,1,28,8.47a5,5,0,0,1-.73-1.2A5.32,5.32,0,0,1,26.9,5.6a5,5,0,0,1,.49-2,4.57,4.57,0,0,1,2.16-2A4.77,4.77,0,0,1,31.41,1.21Z"/><path id="_複合路徑_3" data-name="&lt;複合路徑&gt;" class="cls-1" d="M42,5.39h6V1.21h.45V10H48V5.86H42V10h-.47V1.21H42Z"/><path id="_複合路徑_4" data-name="&lt;複合路徑&gt;" class="cls-1" d="M50.42,3.56V6.29a3.48,3.48,0,0,0,.37,1.9,2.39,2.39,0,0,0,1.31,1.1,3.09,3.09,0,0,0,1,.2h.16a3.1,3.1,0,0,0,1.69-.57,2.78,2.78,0,0,0,1-2.22V3.54h.45V10h-.45V8.56a3.08,3.08,0,0,1-1.73,1.28,2.44,2.44,0,0,1-.8.14h-.12a3.11,3.11,0,0,1-2.53-1A2.76,2.76,0,0,1,50,7.48a5.38,5.38,0,0,1-.08-.78V3.56Z"/><path id="_複合路徑_5" data-name="&lt;複合路徑&gt;" class="cls-1" d="M58.37,5h0a2.86,2.86,0,0,1,1.67-1.29,3.55,3.55,0,0,1,1.1-.16h.14a3.4,3.4,0,0,1,2,.75,3.05,3.05,0,0,1,.84,1.16,3.23,3.23,0,0,1,.22,1.31A3,3,0,0,1,64,8.31a2.88,2.88,0,0,1-1.59,1.45,3.84,3.84,0,0,1-1.35.22h-.14a3.22,3.22,0,0,1-2.1-.88,5.1,5.1,0,0,1-.45-.55V10H57.9V1.21h.47Zm0,1.61v.1l0,0,0,0v.08a2.53,2.53,0,0,0,1.84,2.51,3.35,3.35,0,0,0,.9.12,2.69,2.69,0,0,0,2.39-1.31,3.29,3.29,0,0,0,.35-1.41,2.91,2.91,0,0,0-.65-1.84,2.85,2.85,0,0,0-1.06-.69,3.16,3.16,0,0,0-1-.18,3,3,0,0,0-1.94.71s-.06.1-.18.2A2.63,2.63,0,0,0,58.41,6.64Z"/><rect id="_路徑_5" data-name="&lt;路徑&gt;" class="cls-1" x="35.94" y="5.39" width="3.34" height="0.47"/></g><g id="_群組_7" data-name="&lt;群組&gt;"><path id="_複合路徑_6" data-name="&lt;複合路徑&gt;" class="cls-1" d="M32,16.12H30A3.27,3.27,0,0,1,29.39,18a.38.38,0,0,0-.13-.11,3.35,3.35,0,0,0,.6-2.13v-1H32Zm-.91-3s0,.06-.1.06h0a8.28,8.28,0,0,1,1.31,1l-.1.12a9.15,9.15,0,0,0-1.28-1,5.66,5.66,0,0,1-1.48,1.52.44.44,0,0,0-.12-.1,5,5,0,0,0,1.54-1.64Zm.75,1.79H30v.43h1.79ZM30,16h1.79v-.44H30Zm.13,2.15V16.56h2V18H32v-.22H30.32v.28Zm.13-4h1.43v.16H30.29ZM32,16.72H30.32v.93H32Zm.64.06v-3l.25,0s0,0-.08.06v2.95Zm1.28-3.59.25,0s0,0-.08.06v4.54c0,.18-.07.25-.2.28a5,5,0,0,1-.9,0,1.09,1.09,0,0,0-.08-.16h.48c.49,0,.53,0,.53-.15Z"/><path id="_複合路徑_7" data-name="&lt;複合路徑&gt;" class="cls-1" d="M39.54,17a1.64,1.64,0,0,1-.86,1l-.13-.1a1.59,1.59,0,0,0,.85-.92Zm3.94-2.37v.16H38.56v-.16H41.8l-.08,0a6.49,6.49,0,0,0,.38-.75l.21.1a.1.1,0,0,1-.09,0,6,6,0,0,1-.36.65Zm-.31-1v.16h-4.3v-.16h2.05v-.54l.25,0s0,0-.08.05v.46Zm-.52,1.51v1.44H39.39V15.14Zm-.16.63V15.3H39.55v.47Zm0,.64v-.48H39.55v.48Zm-2.54-2.56a2.71,2.71,0,0,1,.34.69l-.16.07a2.69,2.69,0,0,0-.33-.7Zm.2,3.89c0,.12,0,.14.35.14h1.13c.26,0,.29-.07.32-.67a.5.5,0,0,0,.16.07c0,.63-.09.76-.46.76H40.51c-.42,0-.53,0-.53-.31V17l.25,0s0,0-.08.05Zm.34-1.11a3.72,3.72,0,0,1,1.05.53l-.1.13a3.87,3.87,0,0,0-1.05-.55ZM43.37,18A4.5,4.5,0,0,0,42.28,17l.12-.09a4.15,4.15,0,0,1,1.09.92Z"/><path id="_複合路徑_8" data-name="&lt;複合路徑&gt;" class="cls-1" d="M52.69,16H51.38a3,3,0,0,0,1.38,1.07.73.73,0,0,0-.11.13A3.23,3.23,0,0,1,51.21,16H49.27a3.87,3.87,0,0,1-1.44,1.29.54.54,0,0,0-.12-.13A3.51,3.51,0,0,0,49.08,16H47.77v-.16h1.18V13.92H48v-.16h1v-.66l.25,0s0,0-.08.05v.58h2.23v-.66l.25,0s0,0-.08.05v.58h1v.16h-1v1.91h1.18ZM50.3,17v.8h2V18H48.14V17.8h2V17H48.84v-.16h1.29v-.61l.25,0s0,0-.08.06v.54h1.32V17Zm1-3.09H49.11v.52h2.23Zm-2.23.69v.53h2.23V14.6Zm0,.69v.53h2.23V15.3Z"/><path id="_複合路徑_9" data-name="&lt;複合路徑&gt;" class="cls-1" d="M57.9,14.65v1.91l.73-.31,0,.15-1.59.69a.08.08,0,0,1,0,.08L56.9,17l.83-.34v-2H57v-.16h.75V13.14l.25,0s0,0-.08.06v1.26h.69v.16Zm1.36,2.8c0,.29.09.38.49.38h1.62c.36,0,.41-.18.45-.89A.47.47,0,0,0,62,17c0,.74-.11,1-.63,1H59.78c-.52,0-.68-.1-.68-.54V15.33l-.63.27-.07-.15.7-.3V13.6l.25,0s0,0-.08.06v1.41l1-.44V13.09l.25,0s0,0-.08.05v1.41l1.1-.48,0,0,.15.06,0,0a19.33,19.33,0,0,1-.07,2.23.31.31,0,0,1-.32.27h-.47a.72.72,0,0,0-.06-.17h.48c.1,0,.17,0,.21-.19a17.88,17.88,0,0,0,.06-2l-1.09.46v2.18h-.16V14.83l-1,.44Z"/></g></g></g></g></g></svg>