<svg xmlns="http://www.w3.org/2000/svg" viewBox="0 0 61.37 69.12"><defs><style>.cls-1{fill:#fff;}</style></defs><title>資產 6</title><g id="圖層_2" data-name="圖層 2"><g id="圖層_1-2" data-name="圖層 1"><g id="_群組_" data-name="&lt;群組&gt;"><g id="_群組_2" data-name="&lt;群組&gt;"><path id="_複合路徑_" data-name="&lt;複合路徑&gt;" class="cls-1" d="M7.39,54.74H11.3v.8h-4A6.4,6.4,0,0,0,2,58.28,6.51,6.51,0,0,0,.8,62,6.58,6.58,0,0,0,3,66.81a5.74,5.74,0,0,0,2.37,1.27,5.59,5.59,0,0,0,2.21.3H11.3v.74H7.06a7.18,7.18,0,0,1-5.32-2.48,8.24,8.24,0,0,1-1.2-2A8.72,8.72,0,0,1,0,61.93a8.17,8.17,0,0,1,.8-3.28,7.49,7.49,0,0,1,3.54-3.31A7.82,7.82,0,0,1,7.39,54.74Z"/><path id="_複合路徑_2" data-name="&lt;複合路徑&gt;" class="cls-1" d="M24.72,61.59h9.8V54.74h.73V69.12h-.73V62.36h-9.8v6.75H24V54.74h.77Z"/><path id="_複合路徑_3" data-name="&lt;複合路徑&gt;" class="cls-1" d="M38.55,58.58v4.48a5.7,5.7,0,0,0,.6,3.11A3.92,3.92,0,0,0,41.29,68a5.07,5.07,0,0,0,1.64.34h.27A5.07,5.07,0,0,0,46,67.38a4.56,4.56,0,0,0,1.61-3.64V58.55h.73V69.12h-.73V66.77a5.05,5.05,0,0,1-2.84,2.11,4,4,0,0,1-1.3.24h-.2a5.1,5.1,0,0,1-4.14-1.71A4.52,4.52,0,0,1,37.88,65a8.81,8.81,0,0,1-.13-1.27V58.58Z"/><path id="_複合路徑_4" data-name="&lt;複合路徑&gt;" class="cls-1" d="M51.58,61h0a4.69,4.69,0,0,1,2.74-2.11,5.81,5.81,0,0,1,1.81-.27h.23a5.57,5.57,0,0,1,3.24,1.24A5,5,0,0,1,61,61.76a5.29,5.29,0,0,1,.37,2.14,4.86,4.86,0,0,1-.57,2.47,4.71,4.71,0,0,1-2.61,2.38,6.3,6.3,0,0,1-2.21.37h-.23a5.28,5.28,0,0,1-3.44-1.44,8.36,8.36,0,0,1-.74-.9v2.34h-.77V54.74h.77Zm.07,2.64v.17l0,0,0,0V64a4.14,4.14,0,0,0,3,4.11,5.49,5.49,0,0,0,1.47.2A4.41,4.41,0,0,0,60,66.17a5.4,5.4,0,0,0,.57-2.31,4.77,4.77,0,0,0-1.07-3,4.67,4.67,0,0,0-1.74-1.14,5.18,5.18,0,0,0-1.67-.3,4.94,4.94,0,0,0-3.18,1.17s-.1.16-.3.34A4.31,4.31,0,0,0,51.64,63.63Z"/><rect id="_路徑_" data-name="&lt;路徑&gt;" class="cls-1" x="14.82" y="61.59" width="5.47" height="0.77"/></g><g id="_群組_3" data-name="&lt;群組&gt;"><g id="_群組_4" data-name="&lt;群組&gt;"><path id="_路徑_2" data-name="&lt;路徑&gt;" class="cls-1" d="M50,31.16A20.69,20.69,0,1,1,42.07,5.83l1-2.41a22.7,22.7,0,0,0-3-1.59,23.26,23.26,0,1,0,13.79,25L51.4,25.77A20.45,20.45,0,0,1,50,31.16Z"/><g id="_群組_5" data-name="&lt;群組&gt;"><path id="_路徑_3" data-name="&lt;路徑&gt;" class="cls-1" d="M32.56,17.31a7.13,7.13,0,0,1,2.9.82c-.15-.38-.31-.76-.52-1.16l-4.6-9.06-2,1Z"/><path id="_複合路徑_5" data-name="&lt;複合路徑&gt;" class="cls-1" d="M29.92,19.31a3.93,3.93,0,0,0-1.31.67,6.21,6.21,0,0,0-2.53,2.77c-.17-.27-.34-.54-.5-.86l-4.67-9.19-2,1,4.64,9.15a10.83,10.83,0,0,0,2.17,3h0a5.83,5.83,0,0,0,2.76,1.49h0a6.18,6.18,0,0,0,4-.7l.12-.07a3.91,3.91,0,0,0,1.2-.78,5.9,5.9,0,0,0,1.88-2.32c.17.27.34.54.5.86l4.67,9.19,2-1-4.65-9.15a10.74,10.74,0,0,0-2.17-3,.07.07,0,0,1,0,0,6.12,6.12,0,0,0-3.62-1.55A6.4,6.4,0,0,0,29.92,19.31Zm3,4.4a2.08,2.08,0,1,1-1.35-2.59A2.06,2.06,0,0,1,33,23.72Z"/><path id="_路徑_4" data-name="&lt;路徑&gt;" class="cls-1" d="M26.32,28.19c.14.36.3.73.5,1.11l4.6,9.05,2-1L29.24,29A7.92,7.92,0,0,1,26.32,28.19Z"/></g></g></g></g></g></g></svg>