<svg xmlns="http://www.w3.org/2000/svg" viewBox="0 0 666.65 289.32"><defs><style>.cls-1{fill:#fff;}</style></defs><title>資產 2</title><g id="圖層_2" data-name="圖層 2"><g id="圖層_1-2" data-name="圖層 1"><path class="cls-1" d="M111.39,43.74A33,33,0,0,0,96.47,32.4,50.09,50.09,0,0,0,58,32.91,47.93,47.93,0,0,0,42.21,44.15,49.93,49.93,0,0,0,32,60.91a59.27,59.27,0,0,0-3.58,20.85,64.46,64.46,0,0,0,3.47,21.67,48.85,48.85,0,0,0,9.91,16.86,44.49,44.49,0,0,0,15.43,10.93,50.53,50.53,0,0,0,20.23,3.88,44.72,44.72,0,0,0,20.64-4.6,40.35,40.35,0,0,0,14.51-12.16l20.64,14.51a66.12,66.12,0,0,1-23.5,18.7q-13.9,6.64-32.5,6.64a84,84,0,0,1-31.17-5.62A70.46,70.46,0,0,1,5.72,112.72,81.07,81.07,0,0,1,0,81.76,78.55,78.55,0,0,1,6,50.38,69.83,69.83,0,0,1,22.58,26.57,73.51,73.51,0,0,1,47.42,11.45,88.56,88.56,0,0,1,78.48,6.13,84,84,0,0,1,93,7.46a74,74,0,0,1,14.51,4.09,70.39,70.39,0,0,1,13.08,6.85A42.18,42.18,0,0,1,131,28.21Z"/><path class="cls-1" d="M210.93,93.29H161.88V72.44h49.05Z"/><path class="cls-1" d="M255.48,9.81h25.75V68.27h67.65V9.81h25.75V154.52H348.89V90.34H281.24v64.18H255.48Z"/><path class="cls-1" d="M517.37,111.45a48.27,48.27,0,0,1-3.64,19.13,42.89,42.89,0,0,1-9.94,14.49,43.75,43.75,0,0,1-14.91,9.19,55.85,55.85,0,0,1-37.44,0,44.6,44.6,0,0,1-15-9.19,41.33,41.33,0,0,1-9.94-14.49,49.19,49.19,0,0,1-3.56-19.13V37.24h20.87v73.38a39.9,39.9,0,0,0,1.33,10.19,25,25,0,0,0,4.39,9,22.63,22.63,0,0,0,8.12,6.46,32.71,32.71,0,0,0,25,0,22.68,22.68,0,0,0,8.12-6.46,25,25,0,0,0,4.39-9,40,40,0,0,0,1.33-10.19V37.24h20.87Z"/><path class="cls-1" d="M585.5,0V68.88h.61a39.11,39.11,0,0,1,4.7-5.11,36.15,36.15,0,0,1,6.85-4.91A42.86,42.86,0,0,1,619,53.55a45.76,45.76,0,0,1,34.34,14.92,49.47,49.47,0,0,1,9.81,16.35,58,58,0,0,1,3.47,20.23,60.37,60.37,0,0,1-3.37,20.34,49.88,49.88,0,0,1-9.61,16.56,46.22,46.22,0,0,1-15.12,11.24,46.71,46.71,0,0,1-20.13,4.19,43.47,43.47,0,0,1-19.52-4.5,33.35,33.35,0,0,1-14.21-13.08h-.41v14.72H561V0Zm56.21,105.06A38.34,38.34,0,0,0,640,93.71a31.77,31.77,0,0,0-5.21-10.12A26.23,26.23,0,0,0,626,76.34a26.71,26.71,0,0,0-12.47-2.76,25,25,0,0,0-12.06,2.86,30.91,30.91,0,0,0-9.1,7.36A31.37,31.37,0,0,0,586.63,94a35.38,35.38,0,0,0-1.94,11.45,34.46,34.46,0,0,0,1.94,11.34,31.52,31.52,0,0,0,5.72,10.12,29.49,29.49,0,0,0,9.1,7.26,28.16,28.16,0,0,0,24.53-.1,27.29,27.29,0,0,0,8.79-7.36A31.52,31.52,0,0,0,640,116.5,39.31,39.31,0,0,0,641.71,105.06Z"/><path class="cls-1" d="M28.92,212.79V194.33h3.76v15.32H42v3.13Z"/><path class="cls-1" d="M44.67,197.48v-3.3h3.57v3.3Zm0,15.31V199.31h3.57v13.48Z"/><path class="cls-1" d="M55.6,212.79l-5.43-13.48h3.74l2.54,6.88.74,2.3q.29-.88.37-1.15.18-.57.38-1.14l2.56-6.88h3.67l-5.36,13.48Z"/><path class="cls-1" d="M74.15,208.5l3.55.6a5.83,5.83,0,0,1-2.16,3,6.36,6.36,0,0,1-3.7,1,6,6,0,0,1-5.2-2.3,7.72,7.72,0,0,1-1.33-4.64,7.44,7.44,0,0,1,1.75-5.25,5.77,5.77,0,0,1,4.43-1.9,6,6,0,0,1,4.75,2q1.74,2,1.66,6.09H69a3.61,3.61,0,0,0,.86,2.47,2.7,2.7,0,0,0,2.06.88,2.18,2.18,0,0,0,1.41-.46A2.82,2.82,0,0,0,74.15,208.5Zm.2-3.6a3.44,3.44,0,0,0-.8-2.35,2.57,2.57,0,0,0-3.78,0,3.29,3.29,0,0,0-.75,2.31Z"/><path class="cls-1" d="M87.89,196.81v-2.63h2.28v2.63Zm0,16V199.31h2.28v13.48Z"/><path class="cls-1" d="M93.65,212.79V199.31H95.7v1.92A4.85,4.85,0,0,1,100,199a5.63,5.63,0,0,1,2.24.44,3.52,3.52,0,0,1,1.53,1.15,4.4,4.4,0,0,1,.71,1.69,13.1,13.1,0,0,1,.13,2.22v8.29h-2.28v-8.2a6.15,6.15,0,0,0-.27-2.09,2.2,2.2,0,0,0-.95-1.1,3,3,0,0,0-1.59-.41,3.7,3.7,0,0,0-2.52.93q-1.06.93-1.06,3.52v7.36Z"/><path class="cls-1" d="M120.31,210.74l.33,2a8.48,8.48,0,0,1-1.73.2,3.91,3.91,0,0,1-1.93-.39,2.2,2.2,0,0,1-1-1,8.18,8.18,0,0,1-.28-2.7v-7.75h-1.68v-1.78h1.68V196L118,194.6v4.71h2.3v1.78H118V209a4,4,0,0,0,.12,1.26,1,1,0,0,0,.39.44,1.51,1.51,0,0,0,.78.17A7.37,7.37,0,0,0,120.31,210.74Z"/><path class="cls-1" d="M122.54,212.79v-18.6h2.28v6.68a5.1,5.1,0,0,1,4-1.85,5.44,5.44,0,0,1,2.6.59,3.47,3.47,0,0,1,1.58,1.63,7.52,7.52,0,0,1,.48,3v8.54h-2.28v-8.54a3.53,3.53,0,0,0-.74-2.49,2.76,2.76,0,0,0-2.1-.78,3.7,3.7,0,0,0-1.91.53,3,3,0,0,0-1.28,1.43,6.55,6.55,0,0,0-.38,2.49v7.37Z"/><path class="cls-1" d="M146.23,208.45l2.36.29a5.76,5.76,0,0,1-2.07,3.21,7,7,0,0,1-8.55-.68,7.12,7.12,0,0,1-1.73-5.11,7.45,7.45,0,0,1,1.75-5.28,5.93,5.93,0,0,1,4.54-1.88,5.76,5.76,0,0,1,4.42,1.84,7.31,7.31,0,0,1,1.71,5.18q0,.2,0,.61H138.6a5.18,5.18,0,0,0,1.26,3.4,3.74,3.74,0,0,0,2.82,1.18,3.5,3.5,0,0,0,2.14-.66A4.38,4.38,0,0,0,146.23,208.45Zm-7.5-3.69h7.53a4.57,4.57,0,0,0-.86-2.55,3.5,3.5,0,0,0-2.83-1.32,3.63,3.63,0,0,0-2.65,1.05A4.17,4.17,0,0,0,138.73,204.75Z"/><path class="cls-1" d="M167.47,207.85l2.25.29a5.83,5.83,0,0,1-1.88,3.64,5.49,5.49,0,0,1-3.72,1.31,5.79,5.79,0,0,1-4.45-1.81A7.34,7.34,0,0,1,158,206.1a9.38,9.38,0,0,1,.72-3.82,5,5,0,0,1,2.2-2.46,6.53,6.53,0,0,1,3.22-.82,5.59,5.59,0,0,1,3.59,1.11,5.09,5.09,0,0,1,1.79,3.15l-2.22.34a3.69,3.69,0,0,0-1.12-2,2.91,2.91,0,0,0-1.95-.69,3.55,3.55,0,0,0-2.8,1.24,5.88,5.88,0,0,0-1.08,3.92,6.07,6.07,0,0,0,1,3.95,3.39,3.39,0,0,0,2.72,1.23,3.2,3.2,0,0,0,2.25-.82A4.09,4.09,0,0,0,167.47,207.85Z"/><path class="cls-1" d="M171.68,196.81v-2.63H174v2.63Zm0,16V199.31H174v13.48Z"/><path class="cls-1" d="M182.43,210.74l.33,2a8.48,8.48,0,0,1-1.73.2,3.91,3.91,0,0,1-1.93-.39,2.2,2.2,0,0,1-1-1,8.18,8.18,0,0,1-.28-2.7v-7.75h-1.68v-1.78h1.68V196l2.27-1.37v4.71h2.3v1.78h-2.3V209a4,4,0,0,0,.12,1.26,1,1,0,0,0,.39.44,1.51,1.51,0,0,0,.78.17A7.37,7.37,0,0,0,182.43,210.74Z"/><path class="cls-1" d="M184.57,218l-.25-2.14a5.09,5.09,0,0,0,1.31.2,2.51,2.51,0,0,0,1.22-.25,2.08,2.08,0,0,0,.75-.71,11.21,11.21,0,0,0,.7-1.7q.06-.19.2-.56l-5.11-13.5h2.46l2.8,7.81q.55,1.48,1,3.12a30.6,30.6,0,0,1,.94-3.07l2.88-7.86h2.28L190.59,213a27.08,27.08,0,0,1-1.28,3.06,4.52,4.52,0,0,1-1.4,1.66,3.3,3.3,0,0,1-1.88.53A4.58,4.58,0,0,1,184.57,218Z"/><path class="cls-1" d="M31.46,248.32,27,229.71h3.85l2.8,12.78,3.4-12.78h4.47l3.26,13,2.86-13h3.78l-4.52,18.6h-4l-3.71-13.91-3.69,13.91Z"/><path class="cls-1" d="M52,241.39a7.29,7.29,0,0,1,.88-3.44,6,6,0,0,1,2.48-2.54,7.36,7.36,0,0,1,3.58-.88,6.73,6.73,0,0,1,5,2,6.86,6.86,0,0,1,2,5,6.94,6.94,0,0,1-2,5.07,6.67,6.67,0,0,1-5,2,7.82,7.82,0,0,1-3.53-.84,5.74,5.74,0,0,1-2.56-2.46A8.18,8.18,0,0,1,52,241.39Zm3.66.19a4.46,4.46,0,0,0,1,3.07,3.11,3.11,0,0,0,4.69,0,4.53,4.53,0,0,0,.95-3.1,4.45,4.45,0,0,0-.95-3,3.11,3.11,0,0,0-4.69,0A4.46,4.46,0,0,0,55.69,241.58Z"/><path class="cls-1" d="M72.15,248.32H68.58V234.84h3.31v1.92A5.77,5.77,0,0,1,73.42,235a2.81,2.81,0,0,1,1.54-.43,4.53,4.53,0,0,1,2.35.67l-1.1,3.11a3.13,3.13,0,0,0-1.67-.58,2,2,0,0,0-1.27.41,2.82,2.82,0,0,0-.82,1.49,21.19,21.19,0,0,0-.3,4.52Z"/><path class="cls-1" d="M78.72,248.32v-18.6h3.57v9.87l4.18-4.75h4.39l-4.61,4.92,4.94,8.55H87.34L84,242.26,82.29,244v4.31Z"/><path class="cls-1" d="M102.86,248.32l-4.12-13.48h2.36l2.15,7.78.8,2.89.7-2.78,2.14-7.89h2.35l2,7.82.67,2.58.77-2.6,2.31-7.79h2.22L113,248.32h-2.37l-2.15-8.07-.52-2.3-2.73,10.37Z"/><path class="cls-1" d="M119.16,232.34v-2.63h2.28v2.63Zm0,16V234.84h2.28v13.48Z"/><path class="cls-1" d="M129.9,246.27l.33,2a8.48,8.48,0,0,1-1.73.2,3.91,3.91,0,0,1-1.93-.39,2.2,2.2,0,0,1-1-1,8.18,8.18,0,0,1-.28-2.7v-7.75h-1.68v-1.78h1.68V231.5l2.27-1.37v4.71h2.3v1.78h-2.3v7.88a4,4,0,0,0,.12,1.26,1,1,0,0,0,.39.44,1.51,1.51,0,0,0,.78.17A7.37,7.37,0,0,0,129.9,246.27Z"/><path class="cls-1" d="M132.14,248.32v-18.6h2.28v6.68a5.1,5.1,0,0,1,4-1.85,5.44,5.44,0,0,1,2.6.59,3.47,3.47,0,0,1,1.58,1.63,7.52,7.52,0,0,1,.48,3v8.54h-2.28v-8.54a3.53,3.53,0,0,0-.74-2.49,2.76,2.76,0,0,0-2.1-.78,3.7,3.7,0,0,0-1.91.53,3,3,0,0,0-1.28,1.43,6.55,6.55,0,0,0-.38,2.49v7.37Z"/><path class="cls-1" d="M153.83,232.34v-2.63h2.28v2.63Zm0,16V234.84h2.28v13.48Z"/><path class="cls-1" d="M159.59,248.32V234.84h2.06v1.92a4.85,4.85,0,0,1,4.29-2.22,5.63,5.63,0,0,1,2.24.44,3.52,3.52,0,0,1,1.53,1.15,4.4,4.4,0,0,1,.71,1.69,13.1,13.1,0,0,1,.13,2.22v8.29h-2.28v-8.2A6.15,6.15,0,0,0,168,238a2.2,2.2,0,0,0-.95-1.1,3,3,0,0,0-1.59-.41,3.7,3.7,0,0,0-2.52.93q-1.06.93-1.06,3.52v7.36Z"/><path class="cls-1" d="M182.79,248.32v-1.7a4.19,4.19,0,0,1-3.77,2,5.29,5.29,0,0,1-3-.89,5.84,5.84,0,0,1-2.09-2.48,8.57,8.57,0,0,1-.74-3.66,9.58,9.58,0,0,1,.67-3.66,5.31,5.31,0,0,1,2-2.52,5.39,5.39,0,0,1,3-.88,4.5,4.5,0,0,1,2.17.51,4.55,4.55,0,0,1,1.55,1.34v-6.68h2.27v18.6Zm-7.22-6.73a5.85,5.85,0,0,0,1.09,3.87,3.29,3.29,0,0,0,2.58,1.28,3.23,3.23,0,0,0,2.54-1.22,5.64,5.64,0,0,0,1-3.74,6.34,6.34,0,0,0-1.07-4.06,3.28,3.28,0,0,0-2.63-1.29,3.17,3.17,0,0,0-2.54,1.24A6.14,6.14,0,0,0,175.57,241.59Z"/><path class="cls-1" d="M197.33,248.32v-2a4.93,4.93,0,0,1-4.28,2.28,5.45,5.45,0,0,1-2.23-.46,3.67,3.67,0,0,1-1.54-1.15,4.3,4.3,0,0,1-.7-1.69,11.58,11.58,0,0,1-.14-2.13v-8.35h2.28v7.48a13.31,13.31,0,0,0,.14,2.41,2.38,2.38,0,0,0,.91,1.42,2.83,2.83,0,0,0,1.73.51,3.76,3.76,0,0,0,1.93-.53,2.93,2.93,0,0,0,1.28-1.43,7.2,7.2,0,0,0,.37-2.63v-7.22h2.28v13.48Z"/><path class="cls-1" d="M202,244.29l2.26-.36a3.16,3.16,0,0,0,1.06,2.08,3.7,3.7,0,0,0,2.43.72,3.57,3.57,0,0,0,2.34-.64,1.92,1.92,0,0,0,.76-1.5,1.39,1.39,0,0,0-.67-1.22,9.94,9.94,0,0,0-2.34-.77,21.31,21.31,0,0,1-3.48-1.1,3.33,3.33,0,0,1-2-3.09,3.47,3.47,0,0,1,.41-1.67,3.69,3.69,0,0,1,1.12-1.28,4.72,4.72,0,0,1,1.45-.67,6.92,6.92,0,0,1,2-.27,7.81,7.81,0,0,1,2.79.46,3.79,3.79,0,0,1,1.77,1.24,4.85,4.85,0,0,1,.79,2.09l-2.23.3a2.44,2.44,0,0,0-.88-1.62,3.23,3.23,0,0,0-2.06-.58,3.74,3.74,0,0,0-2.25.52,1.52,1.52,0,0,0-.67,1.22,1.26,1.26,0,0,0,.28.8,2,2,0,0,0,.88.61q.34.13,2,.58a28,28,0,0,1,3.38,1.06,3.43,3.43,0,0,1,1.5,1.2,3.35,3.35,0,0,1,.55,2,3.83,3.83,0,0,1-.67,2.15,4.31,4.31,0,0,1-1.92,1.56,7,7,0,0,1-2.84.55,6.33,6.33,0,0,1-4-1.09A5.08,5.08,0,0,1,202,244.29Z"/><path class="cls-1" d="M220.94,246.27l.33,2a8.48,8.48,0,0,1-1.73.2,3.91,3.91,0,0,1-1.93-.39,2.2,2.2,0,0,1-1-1,8.18,8.18,0,0,1-.28-2.7v-7.75h-1.68v-1.78h1.68V231.5l2.27-1.37v4.71h2.3v1.78h-2.3v7.88a4,4,0,0,0,.12,1.26,1,1,0,0,0,.39.44,1.51,1.51,0,0,0,.78.17A7.37,7.37,0,0,0,220.94,246.27Z"/><path class="cls-1" d="M223.15,248.32V234.84h2.06v2a5.59,5.59,0,0,1,1.45-1.89,2.54,2.54,0,0,1,1.47-.46,4.46,4.46,0,0,1,2.35.74l-.79,2.12a3.27,3.27,0,0,0-1.68-.5,2.18,2.18,0,0,0-1.35.45,2.44,2.44,0,0,0-.85,1.25,8.89,8.89,0,0,0-.38,2.67v7.06Z"/><path class="cls-1" d="M231.72,253.51l-.25-2.14a5.09,5.09,0,0,0,1.31.2,2.51,2.51,0,0,0,1.22-.25,2.08,2.08,0,0,0,.75-.71,11.21,11.21,0,0,0,.7-1.7q.06-.19.2-.56l-5.11-13.5H233l2.8,7.81q.55,1.48,1,3.12a30.6,30.6,0,0,1,.94-3.07l2.88-7.86h2.28l-5.13,13.71a27.08,27.08,0,0,1-1.28,3.06,4.52,4.52,0,0,1-1.4,1.66,3.3,3.3,0,0,1-1.88.53A4.58,4.58,0,0,1,231.72,253.51Z"/><path class="cls-1" d="M40.73,277l3.64,1.15a8.17,8.17,0,0,1-2.79,4.52,8,8,0,0,1-4.94,1.48,8,8,0,0,1-6.09-2.53,9.69,9.69,0,0,1-2.39-6.92q0-4.64,2.4-7.21a8.23,8.23,0,0,1,6.31-2.57,7.74,7.74,0,0,1,5.55,2,7.34,7.34,0,0,1,1.9,3.43l-3.72.89a3.84,3.84,0,0,0-3.92-3.12,4.23,4.23,0,0,0-3.36,1.48Q32,271.1,32,274.43q0,3.53,1.27,5a4.12,4.12,0,0,0,3.3,1.5,3.76,3.76,0,0,0,2.58-1A5.53,5.53,0,0,0,40.73,277Z"/><path class="cls-1" d="M51,283.85H47.41V270.37h3.31v1.92a5.77,5.77,0,0,1,1.53-1.79,2.81,2.81,0,0,1,1.54-.43,4.53,4.53,0,0,1,2.35.67L55,273.85a3.13,3.13,0,0,0-1.67-.58,2,2,0,0,0-1.27.41,2.82,2.82,0,0,0-.82,1.49,21.19,21.19,0,0,0-.3,4.52Z"/><path class="cls-1" d="M65.49,279.56l3.55.6a5.83,5.83,0,0,1-2.16,3,6.36,6.36,0,0,1-3.7,1,6,6,0,0,1-5.2-2.3,7.72,7.72,0,0,1-1.33-4.64A7.44,7.44,0,0,1,58.39,272a5.77,5.77,0,0,1,4.43-1.9,6,6,0,0,1,4.75,2q1.74,2,1.66,6.09H60.3a3.61,3.61,0,0,0,.86,2.47,2.7,2.7,0,0,0,2.06.88,2.18,2.18,0,0,0,1.41-.46A2.82,2.82,0,0,0,65.49,279.56Zm.2-3.6a3.44,3.44,0,0,0-.8-2.35,2.57,2.57,0,0,0-3.78,0,3.29,3.29,0,0,0-.75,2.31Z"/><path class="cls-1" d="M74.8,274.48l-3.24-.58A5,5,0,0,1,73.44,271a6.87,6.87,0,0,1,4-.94,8.54,8.54,0,0,1,3.55.56,3.54,3.54,0,0,1,1.64,1.43,7.35,7.35,0,0,1,.48,3.19l0,4.16a14.44,14.44,0,0,0,.17,2.62,7.63,7.63,0,0,0,.64,1.81H80.32q-.14-.36-.34-1.05-.09-.32-.13-.42a6.42,6.42,0,0,1-2,1.33,5.6,5.6,0,0,1-2.22.44A4.59,4.59,0,0,1,72.4,283a3.75,3.75,0,0,1-1.2-2.86,3.83,3.83,0,0,1,.55-2,3.56,3.56,0,0,1,1.53-1.37,11.94,11.94,0,0,1,2.84-.83,19.4,19.4,0,0,0,3.46-.88v-.36a1.85,1.85,0,0,0-.51-1.47,3,3,0,0,0-1.92-.44,2.56,2.56,0,0,0-1.48.37A2.6,2.6,0,0,0,74.8,274.48Zm4.77,2.89q-.68.23-2.17.55a6.53,6.53,0,0,0-1.94.62,1.49,1.49,0,0,0-.7,1.26,1.75,1.75,0,0,0,.56,1.29,2,2,0,0,0,1.42.55,3.09,3.09,0,0,0,1.84-.63,2.23,2.23,0,0,0,.85-1.18,7.07,7.07,0,0,0,.14-1.74Z"/><path class="cls-1" d="M92.77,270.37v2.84H90.34v5.43a13.53,13.53,0,0,0,.07,1.92.78.78,0,0,0,.32.45,1,1,0,0,0,.6.18,4.61,4.61,0,0,0,1.43-.34l.3,2.77a7.09,7.09,0,0,1-2.82.53,4.47,4.47,0,0,1-1.74-.32,2.54,2.54,0,0,1-1.14-.84,3.3,3.3,0,0,1-.5-1.39,17.29,17.29,0,0,1-.11-2.51v-5.88H85.12v-2.84h1.64v-2.68l3.58-2.08v4.76Z"/><path class="cls-1" d="M103.05,279.56l3.55.6a5.83,5.83,0,0,1-2.16,3,6.36,6.36,0,0,1-3.7,1,6,6,0,0,1-5.2-2.3,7.72,7.72,0,0,1-1.33-4.64A7.44,7.44,0,0,1,96,272a5.77,5.77,0,0,1,4.43-1.9,6,6,0,0,1,4.75,2q1.74,2,1.66,6.09H97.86a3.61,3.61,0,0,0,.86,2.47,2.7,2.7,0,0,0,2.06.88,2.18,2.18,0,0,0,1.41-.46A2.82,2.82,0,0,0,103.05,279.56Zm.2-3.6a3.44,3.44,0,0,0-.8-2.35,2.57,2.57,0,0,0-3.78,0,3.29,3.29,0,0,0-.75,2.31Z"/><path class="cls-1" d="M125.57,282.18a8.5,8.5,0,0,1-2.44,1.52,7.06,7.06,0,0,1-2.52.44,4.9,4.9,0,0,1-3.41-1.08,3.58,3.58,0,0,1-1.19-2.77,3.69,3.69,0,0,1,.45-1.81,3.73,3.73,0,0,1,1.18-1.31,5.55,5.55,0,0,1,1.64-.75,16.43,16.43,0,0,1,2-.34,20.86,20.86,0,0,0,4.07-.79q0-.47,0-.6a2.52,2.52,0,0,0-.65-2,3.82,3.82,0,0,0-2.6-.77,4,4,0,0,0-2.38.56,3.45,3.45,0,0,0-1.14,2l-2.23-.3a5.54,5.54,0,0,1,1-2.32,4.4,4.4,0,0,1,2-1.36,9,9,0,0,1,3.06-.48,8.1,8.1,0,0,1,2.8.41,3.7,3.7,0,0,1,1.59,1,3.59,3.59,0,0,1,.71,1.55,12.86,12.86,0,0,1,.11,2.11v3a32.35,32.35,0,0,0,.15,4,5.07,5.07,0,0,0,.58,1.62H126A4.84,4.84,0,0,1,125.57,282.18Zm-.19-5.1a16.77,16.77,0,0,1-3.73.86,8.61,8.61,0,0,0-2,.46,2,2,0,0,0-.9.74,2,2,0,0,0,.37,2.61,3,3,0,0,0,2,.61,4.71,4.71,0,0,0,2.35-.58A3.55,3.55,0,0,0,125,280.2a5.52,5.52,0,0,0,.37-2.28Z"/><path class="cls-1" d="M136.21,281.8l.33,2a8.48,8.48,0,0,1-1.73.2,3.91,3.91,0,0,1-1.93-.39,2.2,2.2,0,0,1-1-1,8.18,8.18,0,0,1-.28-2.7v-7.75H130v-1.78h1.68V267l2.27-1.37v4.71h2.3v1.78h-2.3V280a4,4,0,0,0,.12,1.26,1,1,0,0,0,.39.44,1.51,1.51,0,0,0,.78.17A7.37,7.37,0,0,0,136.21,281.8Z"/><path class="cls-1" d="M150.66,281.8l.33,2a8.48,8.48,0,0,1-1.73.2,3.91,3.91,0,0,1-1.93-.39,2.2,2.2,0,0,1-1-1,8.18,8.18,0,0,1-.28-2.7v-7.75h-1.68v-1.78h1.68V267l2.27-1.37v4.71h2.3v1.78h-2.3V280a4,4,0,0,0,.12,1.26,1,1,0,0,0,.39.44,1.51,1.51,0,0,0,.78.17A7.37,7.37,0,0,0,150.66,281.8Z"/><path class="cls-1" d="M152.89,283.85v-18.6h2.28v6.68a5.1,5.1,0,0,1,4-1.85,5.44,5.44,0,0,1,2.6.59,3.47,3.47,0,0,1,1.58,1.63,7.52,7.52,0,0,1,.48,3v8.54h-2.28v-8.54a3.53,3.53,0,0,0-.74-2.49,2.76,2.76,0,0,0-2.1-.78,3.7,3.7,0,0,0-1.91.53,3,3,0,0,0-1.28,1.43,6.55,6.55,0,0,0-.38,2.49v7.37Z"/><path class="cls-1" d="M176.57,279.51l2.36.29a5.76,5.76,0,0,1-2.07,3.21,7,7,0,0,1-8.55-.68,7.12,7.12,0,0,1-1.73-5.11,7.45,7.45,0,0,1,1.75-5.28,5.93,5.93,0,0,1,4.54-1.88,5.76,5.76,0,0,1,4.42,1.84,7.31,7.31,0,0,1,1.71,5.18q0,.2,0,.61H168.94a5.18,5.18,0,0,0,1.26,3.4,3.74,3.74,0,0,0,2.82,1.18,3.5,3.5,0,0,0,2.14-.66A4.38,4.38,0,0,0,176.57,279.51Zm-7.5-3.69h7.53a4.57,4.57,0,0,0-.86-2.55,3.5,3.5,0,0,0-2.83-1.32,3.63,3.63,0,0,0-2.65,1.05A4.17,4.17,0,0,0,169.07,275.81Z"/><path class="cls-1" d="M197.85,283.85v-2a4.93,4.93,0,0,1-4.28,2.28,5.45,5.45,0,0,1-2.23-.46,3.67,3.67,0,0,1-1.54-1.15,4.3,4.3,0,0,1-.7-1.69,11.58,11.58,0,0,1-.14-2.13v-8.35h2.28v7.48a13.31,13.31,0,0,0,.14,2.41,2.38,2.38,0,0,0,.91,1.42,2.83,2.83,0,0,0,1.73.51,3.76,3.76,0,0,0,1.93-.53,2.93,2.93,0,0,0,1.28-1.43,7.2,7.2,0,0,0,.37-2.63v-7.22h2.28v13.48Z"/><path class="cls-1" d="M203.48,283.85V270.37h2.06v1.92a4.85,4.85,0,0,1,4.29-2.22,5.63,5.63,0,0,1,2.24.44,3.52,3.52,0,0,1,1.53,1.15,4.4,4.4,0,0,1,.71,1.69,13.1,13.1,0,0,1,.13,2.22v8.29h-2.28v-8.2a6.15,6.15,0,0,0-.27-2.09,2.2,2.2,0,0,0-.95-1.1,3,3,0,0,0-1.59-.41,3.7,3.7,0,0,0-2.52.93q-1.06.93-1.06,3.52v7.36Z"/><path class="cls-1" d="M217.94,267.87v-2.63h2.28v2.63Zm0,16V270.37h2.28v13.48Z"/><path class="cls-1" d="M227.45,283.85l-5.13-13.48h2.41l2.89,8.07q.47,1.31.86,2.72.3-1.07.85-2.56l3-8.22h2.35l-5.1,13.48Z"/><path class="cls-1" d="M245.93,279.51l2.36.29a5.76,5.76,0,0,1-2.07,3.21,7,7,0,0,1-8.55-.68,7.12,7.12,0,0,1-1.73-5.11,7.45,7.45,0,0,1,1.75-5.28,5.93,5.93,0,0,1,4.54-1.88,5.76,5.76,0,0,1,4.42,1.84,7.31,7.31,0,0,1,1.71,5.18q0,.2,0,.61H238.3a5.18,5.18,0,0,0,1.26,3.4,3.74,3.74,0,0,0,2.82,1.18,3.5,3.5,0,0,0,2.14-.66A4.38,4.38,0,0,0,245.93,279.51Zm-7.5-3.69H246a4.57,4.57,0,0,0-.86-2.55,3.5,3.5,0,0,0-2.83-1.32,3.63,3.63,0,0,0-2.65,1.05A4.17,4.17,0,0,0,238.43,275.81Z"/><path class="cls-1" d="M251.13,283.85V270.37h2.06v2a5.59,5.59,0,0,1,1.45-1.89,2.54,2.54,0,0,1,1.47-.46,4.46,4.46,0,0,1,2.35.74l-.79,2.12a3.27,3.27,0,0,0-1.68-.5,2.18,2.18,0,0,0-1.35.45,2.44,2.44,0,0,0-.85,1.25,8.89,8.89,0,0,0-.38,2.67v7.06Z"/><path class="cls-1" d="M258.9,279.82l2.26-.36a3.16,3.16,0,0,0,1.06,2.08,3.7,3.7,0,0,0,2.43.72,3.57,3.57,0,0,0,2.34-.64,1.92,1.92,0,0,0,.76-1.5,1.39,1.39,0,0,0-.67-1.22,9.94,9.94,0,0,0-2.34-.77,21.31,21.31,0,0,1-3.48-1.1,3.33,3.33,0,0,1-2-3.09,3.47,3.47,0,0,1,.41-1.67,3.69,3.69,0,0,1,1.12-1.28,4.72,4.72,0,0,1,1.45-.67,6.92,6.92,0,0,1,2-.27,7.81,7.81,0,0,1,2.79.46,3.79,3.79,0,0,1,1.77,1.24,4.85,4.85,0,0,1,.79,2.09l-2.23.3a2.44,2.44,0,0,0-.88-1.62,3.23,3.23,0,0,0-2.06-.58,3.74,3.74,0,0,0-2.25.52,1.52,1.52,0,0,0-.67,1.22,1.26,1.26,0,0,0,.28.8,2,2,0,0,0,.88.61q.34.13,2,.58a28,28,0,0,1,3.38,1.06,3.43,3.43,0,0,1,1.5,1.2,3.35,3.35,0,0,1,.55,2,3.83,3.83,0,0,1-.67,2.15,4.31,4.31,0,0,1-1.92,1.56,7,7,0,0,1-2.84.55,6.33,6.33,0,0,1-4-1.09A5.08,5.08,0,0,1,258.9,279.82Z"/><path class="cls-1" d="M272.82,267.87v-2.63h2.28v2.63Zm0,16V270.37h2.28v13.48Z"/><path class="cls-1" d="M283.57,281.8l.33,2a8.48,8.48,0,0,1-1.73.2,3.91,3.91,0,0,1-1.93-.39,2.2,2.2,0,0,1-1-1,8.18,8.18,0,0,1-.28-2.7v-7.75h-1.68v-1.78H279V267l2.27-1.37v4.71h2.3v1.78h-2.3V280a4,4,0,0,0,.12,1.26,1,1,0,0,0,.39.44,1.51,1.51,0,0,0,.78.17A7.37,7.37,0,0,0,283.57,281.8Z"/><path class="cls-1" d="M285.7,289l-.25-2.14a5.09,5.09,0,0,0,1.31.2,2.51,2.51,0,0,0,1.22-.25,2.08,2.08,0,0,0,.75-.71,11.21,11.21,0,0,0,.7-1.7q.06-.19.2-.56l-5.11-13.5H287l2.8,7.81q.55,1.48,1,3.12a30.6,30.6,0,0,1,.94-3.07l2.88-7.86h2.28l-5.13,13.71a27.08,27.08,0,0,1-1.28,3.06,4.52,4.52,0,0,1-1.4,1.66,3.3,3.3,0,0,1-1.88.53A4.58,4.58,0,0,1,285.7,289Z"/></g></g></svg>