<svg xmlns="http://www.w3.org/2000/svg" viewBox="0 0 269.83 124.63"><defs><style>.cls-1{fill:#fff;}</style></defs><title>資產 3</title><g id="圖層_2" data-name="圖層 2"><g id="圖層_1-2" data-name="圖層 1"><path class="cls-1" d="M45.09,17.7a13.35,13.35,0,0,0-6-4.59,20.27,20.27,0,0,0-15.55.21,19.41,19.41,0,0,0-6.41,4.55,20.2,20.2,0,0,0-4.14,6.78,24,24,0,0,0-1.45,8.44,26.09,26.09,0,0,0,1.41,8.77,19.78,19.78,0,0,0,4,6.83,18,18,0,0,0,6.25,4.43,20.45,20.45,0,0,0,8.19,1.57,18.1,18.1,0,0,0,8.36-1.86,16.34,16.34,0,0,0,5.87-4.92l8.35,5.87a26.76,26.76,0,0,1-9.51,7.57A30.22,30.22,0,0,1,31.27,64a34,34,0,0,1-12.62-2.28A28.52,28.52,0,0,1,2.32,45.62,32.83,32.83,0,0,1,0,33.09a31.8,31.8,0,0,1,2.44-12.7,28.26,28.26,0,0,1,6.7-9.64A29.76,29.76,0,0,1,19.19,4.63,35.86,35.86,0,0,1,31.77,2.48,34,34,0,0,1,37.64,3a30,30,0,0,1,5.87,1.65,28.48,28.48,0,0,1,5.29,2.77,17.06,17.06,0,0,1,4.22,4Z"/><path class="cls-1" d="M85.37,37.76H65.52V29.32H85.37Z"/><path class="cls-1" d="M103.41,4h10.42V27.63h27.38V4h10.42V62.54H141.21v-26H113.83v26H103.41Z"/><path class="cls-1" d="M209.4,45.11a19.54,19.54,0,0,1-1.47,7.74,17.36,17.36,0,0,1-4,5.87,17.71,17.71,0,0,1-6,3.72,22.6,22.6,0,0,1-15.15,0,18.06,18.06,0,0,1-6.07-3.72,16.74,16.74,0,0,1-4-5.87,19.9,19.9,0,0,1-1.44-7.74v-30h8.45v29.7a16.15,16.15,0,0,0,.54,4.12A10.08,10.08,0,0,0,182,52.55a9.16,9.16,0,0,0,3.29,2.61,13.24,13.24,0,0,0,10.12,0,9.19,9.19,0,0,0,3.29-2.61,10.14,10.14,0,0,0,1.78-3.65,16.19,16.19,0,0,0,.54-4.12V15.07h8.45Z"/><path class="cls-1" d="M237,0V27.88h.25a15.87,15.87,0,0,1,1.9-2.07,14.62,14.62,0,0,1,2.77-2,17.34,17.34,0,0,1,8.65-2.15,18.52,18.52,0,0,1,13.9,6,20,20,0,0,1,4,6.62,23.47,23.47,0,0,1,1.41,8.19,24.43,24.43,0,0,1-1.37,8.23,20.19,20.19,0,0,1-3.89,6.7A18.72,18.72,0,0,1,258.45,62a18.91,18.91,0,0,1-8.15,1.7,17.59,17.59,0,0,1-7.9-1.82,13.5,13.5,0,0,1-5.75-5.29h-.17v6h-9.43V0Zm22.75,42.52a15.51,15.51,0,0,0-.7-4.59,12.88,12.88,0,0,0-2.11-4.09,10.62,10.62,0,0,0-3.56-2.94,10.81,10.81,0,0,0-5-1.12,10.14,10.14,0,0,0-4.88,1.16,12.5,12.5,0,0,0-3.68,3,12.69,12.69,0,0,0-2.32,4.14,14.33,14.33,0,0,0-.79,4.63,14,14,0,0,0,.79,4.59,12.75,12.75,0,0,0,2.32,4.1,11.91,11.91,0,0,0,3.68,2.94,11.4,11.4,0,0,0,9.93,0,11,11,0,0,0,3.56-3A12.78,12.78,0,0,0,259,47.15,15.9,15.9,0,0,0,259.73,42.52Z"/><path class="cls-1" d="M11.9,88.13V78.9h1.88v7.66h4.67v1.57Z"/><path class="cls-1" d="M19.78,80.47V78.82h1.78v1.65Zm0,7.66V81.39h1.78v6.74Z"/><path class="cls-1" d="M25.24,88.13l-2.72-6.74H24.4l1.27,3.44L26,86c.1-.29.16-.48.18-.58s.12-.38.19-.57l1.28-3.44h1.83l-2.68,6.74Z"/><path class="cls-1" d="M34.52,86l1.78.3a2.91,2.91,0,0,1-1.08,1.49,3.18,3.18,0,0,1-1.85.51,3,3,0,0,1-2.6-1.15,3.86,3.86,0,0,1-.67-2.32A3.72,3.72,0,0,1,31,82.18a2.88,2.88,0,0,1,2.21-.95,3,3,0,0,1,2.37,1,4.4,4.4,0,0,1,.83,3H31.92a1.81,1.81,0,0,0,.43,1.23,1.35,1.35,0,0,0,1,.44,1.09,1.09,0,0,0,.7-.23A1.41,1.41,0,0,0,34.52,86Zm.1-1.8a1.72,1.72,0,0,0-.4-1.18,1.29,1.29,0,0,0-1.89,0A1.65,1.65,0,0,0,32,84.18Z"/><path class="cls-1" d="M41.39,80.13V78.82h1.14v1.31Zm0,8V81.39h1.14v6.74Z"/><path class="cls-1" d="M44.27,88.13V81.39h1v1a2.43,2.43,0,0,1,2.15-1.11,2.82,2.82,0,0,1,1.12.22,1.76,1.76,0,0,1,.76.57,2.21,2.21,0,0,1,.36.84A6.58,6.58,0,0,1,49.75,84v4.15H48.61V84a3,3,0,0,0-.13-1,1.09,1.09,0,0,0-.47-.55,1.51,1.51,0,0,0-.8-.21,1.85,1.85,0,0,0-1.26.46,2.29,2.29,0,0,0-.53,1.76v3.68Z"/><path class="cls-1" d="M57.61,87.1l.17,1a4.22,4.22,0,0,1-.86.1,2,2,0,0,1-1-.2,1.1,1.1,0,0,1-.48-.52,4.1,4.1,0,0,1-.14-1.35V82.27h-.84v-.89h.84V79.72L56.46,79v2.35h1.15v.89H56.46v3.94a2,2,0,0,0,.06.63.48.48,0,0,0,.2.22.76.76,0,0,0,.39.08A3.69,3.69,0,0,0,57.61,87.1Z"/><path class="cls-1" d="M58.73,88.13V78.82h1.14v3.34a2.55,2.55,0,0,1,2-.93,2.73,2.73,0,0,1,1.3.29,1.73,1.73,0,0,1,.79.82,3.75,3.75,0,0,1,.24,1.51v4.27H63.07V83.85a1.77,1.77,0,0,0-.37-1.25,1.38,1.38,0,0,0-1.05-.39,1.85,1.85,0,0,0-1,.26,1.49,1.49,0,0,0-.64.71,3.28,3.28,0,0,0-.19,1.24v3.69Z"/><path class="cls-1" d="M70.57,86l1.18.15a2.88,2.88,0,0,1-1,1.61,3.5,3.5,0,0,1-4.27-.34,3.56,3.56,0,0,1-.87-2.55,3.72,3.72,0,0,1,.88-2.64,3,3,0,0,1,2.27-.94,2.88,2.88,0,0,1,2.21.92,3.66,3.66,0,0,1,.86,2.59c0,.07,0,.17,0,.3h-5a2.59,2.59,0,0,0,.63,1.7,1.87,1.87,0,0,0,1.41.59A1.75,1.75,0,0,0,69.87,87,2.2,2.2,0,0,0,70.57,86Zm-3.75-1.85h3.76a2.28,2.28,0,0,0-.43-1.28,1.75,1.75,0,0,0-1.42-.66,1.82,1.82,0,0,0-1.32.53A2.08,2.08,0,0,0,66.82,84.11Z"/><path class="cls-1" d="M81.2,85.66l1.12.15a2.91,2.91,0,0,1-.94,1.82,2.74,2.74,0,0,1-1.86.66,2.9,2.9,0,0,1-2.23-.9,3.67,3.67,0,0,1-.84-2.59,4.71,4.71,0,0,1,.36-1.91,2.53,2.53,0,0,1,1.1-1.23,3.27,3.27,0,0,1,1.61-.41,2.8,2.8,0,0,1,1.8.56,2.55,2.55,0,0,1,.89,1.58l-1.11.17a1.84,1.84,0,0,0-.56-1,1.45,1.45,0,0,0-1-.34,1.77,1.77,0,0,0-1.4.62,2.94,2.94,0,0,0-.54,2,3,3,0,0,0,.52,2,1.69,1.69,0,0,0,1.36.62,1.6,1.6,0,0,0,1.12-.41A2,2,0,0,0,81.2,85.66Z"/><path class="cls-1" d="M83.3,80.13V78.82h1.14v1.31Zm0,8V81.39h1.14v6.74Z"/><path class="cls-1" d="M88.68,87.1l.17,1a4.22,4.22,0,0,1-.86.1,2,2,0,0,1-1-.2,1.1,1.1,0,0,1-.48-.52,4.1,4.1,0,0,1-.14-1.35V82.27h-.84v-.89h.84V79.72L87.53,79v2.35h1.15v.89H87.53v3.94a2,2,0,0,0,.06.63.48.48,0,0,0,.2.22.76.76,0,0,0,.39.08A3.69,3.69,0,0,0,88.68,87.1Z"/><path class="cls-1" d="M89.75,90.72l-.13-1.07a2.53,2.53,0,0,0,.65.1,1.26,1.26,0,0,0,.61-.13,1,1,0,0,0,.37-.36,5.59,5.59,0,0,0,.35-.85l.1-.28-2.56-6.75h1.23l1.4,3.9q.27.74.49,1.56a15.38,15.38,0,0,1,.47-1.54l1.44-3.93h1.14l-2.56,6.86a13.48,13.48,0,0,1-.64,1.53,2.26,2.26,0,0,1-.7.83,1.65,1.65,0,0,1-.94.26A2.28,2.28,0,0,1,89.75,90.72Z"/><path class="cls-1" d="M13.17,105.51,10.95,96.2h1.92l1.4,6.39L16,96.2h2.23l1.63,6.5,1.43-6.5h1.89l-2.26,9.31h-2l-1.85-7-1.85,7Z"/><path class="cls-1" d="M23.46,102a3.64,3.64,0,0,1,.44-1.72,3,3,0,0,1,1.24-1.27,3.68,3.68,0,0,1,1.79-.44,3.37,3.37,0,0,1,2.51,1,3.43,3.43,0,0,1,1,2.51,3.47,3.47,0,0,1-1,2.54,3.34,3.34,0,0,1-2.48,1,3.92,3.92,0,0,1-1.77-.42A2.87,2.87,0,0,1,23.89,104,4.08,4.08,0,0,1,23.46,102Zm1.83.1a2.24,2.24,0,0,0,.48,1.54,1.56,1.56,0,0,0,2.35,0,2.26,2.26,0,0,0,.47-1.55,2.22,2.22,0,0,0-.47-1.52,1.56,1.56,0,0,0-2.35,0A2.24,2.24,0,0,0,25.28,102.14Z"/><path class="cls-1" d="M33.52,105.51H31.73V98.77h1.66v1a2.88,2.88,0,0,1,.76-.9,1.41,1.41,0,0,1,.77-.22A2.27,2.27,0,0,1,36.1,99l-.55,1.56a1.57,1.57,0,0,0-.84-.29,1,1,0,0,0-.63.21,1.41,1.41,0,0,0-.41.75,10.58,10.58,0,0,0-.15,2.26Z"/><path class="cls-1" d="M36.8,105.51V96.2h1.78v4.94l2.09-2.37h2.2l-2.3,2.46L43,105.51H41.12l-1.7-3-.83.87v2.16Z"/><path class="cls-1" d="M48.88,105.51l-2.06-6.74H48l1.07,3.89.4,1.45.35-1.39,1.07-3.95h1.17l1,3.91.34,1.29.39-1.3L55,98.77h1.11L54,105.51H52.77l-1.07-4-.26-1.15-1.36,5.19Z"/><path class="cls-1" d="M57,97.52V96.2h1.14v1.31Zm0,8V98.77h1.14v6.74Z"/><path class="cls-1" d="M62.41,104.49l.17,1a4.22,4.22,0,0,1-.86.1,2,2,0,0,1-1-.2,1.1,1.1,0,0,1-.48-.52,4.1,4.1,0,0,1-.14-1.35V99.66h-.84v-.89h.84V97.1l1.14-.69v2.35h1.15v.89H61.26v3.94a2,2,0,0,0,.06.63.48.48,0,0,0,.2.22.76.76,0,0,0,.39.08A3.69,3.69,0,0,0,62.41,104.49Z"/><path class="cls-1" d="M63.52,105.51V96.2h1.14v3.34a2.55,2.55,0,0,1,2-.93,2.73,2.73,0,0,1,1.3.29,1.73,1.73,0,0,1,.79.82,3.75,3.75,0,0,1,.24,1.51v4.27H67.87v-4.27A1.77,1.77,0,0,0,67.5,100a1.38,1.38,0,0,0-1.05-.39,1.85,1.85,0,0,0-1,.26,1.49,1.49,0,0,0-.64.71,3.28,3.28,0,0,0-.19,1.24v3.69Z"/><path class="cls-1" d="M74.37,97.52V96.2h1.14v1.31Zm0,8V98.77h1.14v6.74Z"/><path class="cls-1" d="M77.25,105.51V98.77h1v1a2.43,2.43,0,0,1,2.15-1.11,2.82,2.82,0,0,1,1.12.22,1.76,1.76,0,0,1,.76.57,2.21,2.21,0,0,1,.36.84,6.58,6.58,0,0,1,.06,1.11v4.15H81.59v-4.1a3,3,0,0,0-.13-1,1.09,1.09,0,0,0-.47-.55,1.51,1.51,0,0,0-.8-.21,1.85,1.85,0,0,0-1.26.46,2.29,2.29,0,0,0-.53,1.76v3.68Z"/><path class="cls-1" d="M88.86,105.51v-.85a2.1,2.1,0,0,1-1.88,1,2.64,2.64,0,0,1-1.48-.44,2.92,2.92,0,0,1-1-1.24,4.29,4.29,0,0,1-.37-1.83,4.79,4.79,0,0,1,.34-1.83,2.65,2.65,0,0,1,1-1.26,2.7,2.7,0,0,1,1.5-.44,2.25,2.25,0,0,1,1.08.26,2.28,2.28,0,0,1,.77.67V96.2h1.14v9.31Zm-3.61-3.36a2.93,2.93,0,0,0,.54,1.94,1.65,1.65,0,0,0,1.29.64,1.62,1.62,0,0,0,1.27-.61,2.82,2.82,0,0,0,.52-1.87,3.17,3.17,0,0,0-.53-2A1.64,1.64,0,0,0,87,99.56a1.58,1.58,0,0,0-1.27.62A3.07,3.07,0,0,0,85.25,102.15Z"/><path class="cls-1" d="M96.13,105.51v-1A2.47,2.47,0,0,1,94,105.66a2.73,2.73,0,0,1-1.11-.23,1.83,1.83,0,0,1-.77-.57,2.15,2.15,0,0,1-.35-.85,5.78,5.78,0,0,1-.07-1.07V98.77h1.14v3.74a6.65,6.65,0,0,0,.07,1.21,1.19,1.19,0,0,0,.46.71,1.41,1.41,0,0,0,.86.26,1.88,1.88,0,0,0,1-.26,1.46,1.46,0,0,0,.64-.72,3.59,3.59,0,0,0,.19-1.32V98.77h1.14v6.74Z"/><path class="cls-1" d="M98.49,103.5l1.13-.18a1.58,1.58,0,0,0,.53,1,1.85,1.85,0,0,0,1.22.36,1.79,1.79,0,0,0,1.17-.32,1,1,0,0,0,.38-.75.69.69,0,0,0-.34-.61,5,5,0,0,0-1.17-.39,10.7,10.7,0,0,1-1.74-.55,1.67,1.67,0,0,1-1-1.55,1.74,1.74,0,0,1,.21-.83,1.85,1.85,0,0,1,.56-.64,2.35,2.35,0,0,1,.73-.33,3.44,3.44,0,0,1,1-.14,3.9,3.9,0,0,1,1.39.23,1.9,1.9,0,0,1,.89.62,2.42,2.42,0,0,1,.39,1l-1.12.15a1.22,1.22,0,0,0-.44-.81,1.61,1.61,0,0,0-1-.29,1.87,1.87,0,0,0-1.12.26.76.76,0,0,0-.34.61.63.63,0,0,0,.14.4,1,1,0,0,0,.44.3l1,.29a14,14,0,0,1,1.69.53,1.71,1.71,0,0,1,.75.6,1.68,1.68,0,0,1,.27,1,1.92,1.92,0,0,1-.33,1.08,2.15,2.15,0,0,1-1,.78,3.49,3.49,0,0,1-1.42.28,3.17,3.17,0,0,1-2-.55A2.54,2.54,0,0,1,98.49,103.5Z"/><path class="cls-1" d="M107.94,104.49l.17,1a4.22,4.22,0,0,1-.86.1,2,2,0,0,1-1-.2,1.1,1.1,0,0,1-.48-.52,4.1,4.1,0,0,1-.14-1.35V99.66h-.84v-.89h.84V97.1l1.14-.69v2.35h1.15v.89h-1.15v3.94a2,2,0,0,0,.06.63.48.48,0,0,0,.2.22.76.76,0,0,0,.39.08A3.69,3.69,0,0,0,107.94,104.49Z"/><path class="cls-1" d="M109,105.51V98.77h1v1a2.78,2.78,0,0,1,.73-.95,1.27,1.27,0,0,1,.73-.23,2.23,2.23,0,0,1,1.17.37l-.39,1.06a1.63,1.63,0,0,0-.84-.25,1.09,1.09,0,0,0-.67.23,1.21,1.21,0,0,0-.42.63,4.45,4.45,0,0,0-.19,1.33v3.53Z"/><path class="cls-1" d="M113.33,108.11l-.13-1.07a2.53,2.53,0,0,0,.65.1,1.26,1.26,0,0,0,.61-.13,1,1,0,0,0,.37-.36,5.59,5.59,0,0,0,.35-.85l.1-.28-2.56-6.75H114l1.4,3.9q.27.74.49,1.56a15.38,15.38,0,0,1,.47-1.54l1.44-3.93h1.14l-2.56,6.86a13.48,13.48,0,0,1-.64,1.53,2.26,2.26,0,0,1-.7.83,1.65,1.65,0,0,1-.94.26A2.28,2.28,0,0,1,113.33,108.11Z"/><path class="cls-1" d="M17.8,118.47l1.82.58a4.09,4.09,0,0,1-1.39,2.26,4,4,0,0,1-2.47.74,4,4,0,0,1-3-1.27,4.85,4.85,0,0,1-1.19-3.46,5.09,5.09,0,0,1,1.2-3.61,4.11,4.11,0,0,1,3.16-1.29,3.87,3.87,0,0,1,2.77,1,3.68,3.68,0,0,1,1,1.71l-1.86.44a1.92,1.92,0,0,0-2-1.56,2.12,2.12,0,0,0-1.68.74,3.64,3.64,0,0,0-.64,2.41,3.91,3.91,0,0,0,.63,2.51,2.06,2.06,0,0,0,1.65.75A1.88,1.88,0,0,0,17,120,2.77,2.77,0,0,0,17.8,118.47Z"/><path class="cls-1" d="M22.93,121.89H21.15v-6.74H22.8v1a2.88,2.88,0,0,1,.76-.9,1.41,1.41,0,0,1,.77-.22,2.27,2.27,0,0,1,1.17.34L25,116.89a1.57,1.57,0,0,0-.84-.29,1,1,0,0,0-.63.21,1.41,1.41,0,0,0-.41.75,10.58,10.58,0,0,0-.15,2.26Z"/><path class="cls-1" d="M30.19,119.75,32,120a2.91,2.91,0,0,1-1.08,1.49A3.18,3.18,0,0,1,29,122a3,3,0,0,1-2.6-1.15,3.86,3.86,0,0,1-.67-2.32,3.72,3.72,0,0,1,.88-2.62,2.88,2.88,0,0,1,2.21-.95,3,3,0,0,1,2.37,1,4.4,4.4,0,0,1,.83,3H27.59a1.81,1.81,0,0,0,.43,1.23,1.35,1.35,0,0,0,1,.44,1.09,1.09,0,0,0,.7-.23A1.41,1.41,0,0,0,30.19,119.75Zm.1-1.8a1.72,1.72,0,0,0-.4-1.18,1.29,1.29,0,0,0-1.89,0,1.65,1.65,0,0,0-.37,1.16Z"/><path class="cls-1" d="M34.84,117.21l-1.62-.29a2.52,2.52,0,0,1,.94-1.45,3.44,3.44,0,0,1,2-.47,4.27,4.27,0,0,1,1.78.28,1.77,1.77,0,0,1,.82.72,3.69,3.69,0,0,1,.24,1.6l0,2.08a7.18,7.18,0,0,0,.09,1.31,3.82,3.82,0,0,0,.32.9H37.61c0-.12-.1-.29-.17-.53l-.06-.21a3.21,3.21,0,0,1-1,.67,2.8,2.8,0,0,1-1.11.22,2.3,2.3,0,0,1-1.64-.56,1.88,1.88,0,0,1-.6-1.43,1.92,1.92,0,0,1,.27-1,1.77,1.77,0,0,1,.76-.69,6,6,0,0,1,1.42-.42,9.72,9.72,0,0,0,1.73-.44v-.18a.92.92,0,0,0-.25-.73,1.52,1.52,0,0,0-1-.22,1.28,1.28,0,0,0-.74.19A1.31,1.31,0,0,0,34.84,117.21Zm2.39,1.45a11.18,11.18,0,0,1-1.08.27,3.28,3.28,0,0,0-1,.31.74.74,0,0,0-.35.63.87.87,0,0,0,.28.65,1,1,0,0,0,.71.27,1.55,1.55,0,0,0,.92-.32,1.12,1.12,0,0,0,.42-.59,3.51,3.51,0,0,0,.07-.87Z"/><path class="cls-1" d="M43.83,115.15v1.42H42.61v2.72a6.72,6.72,0,0,0,0,1,.39.39,0,0,0,.16.23.51.51,0,0,0,.3.09,2.3,2.3,0,0,0,.72-.17l.15,1.38a3.54,3.54,0,0,1-1.41.27,2.23,2.23,0,0,1-.87-.16,1.27,1.27,0,0,1-.57-.42,1.66,1.66,0,0,1-.25-.69,8.82,8.82,0,0,1-.06-1.26v-2.94H40v-1.42h.82v-1.34l1.79-1v2.38Z"/><path class="cls-1" d="M49,119.75l1.78.3a2.91,2.91,0,0,1-1.08,1.49,3.18,3.18,0,0,1-1.85.51,3,3,0,0,1-2.6-1.15,3.86,3.86,0,0,1-.67-2.32,3.72,3.72,0,0,1,.88-2.62,2.88,2.88,0,0,1,2.21-.95A3,3,0,0,1,50,116a4.4,4.4,0,0,1,.83,3H46.38a1.81,1.81,0,0,0,.43,1.23,1.35,1.35,0,0,0,1,.44,1.09,1.09,0,0,0,.7-.23A1.41,1.41,0,0,0,49,119.75Zm.1-1.8a1.72,1.72,0,0,0-.4-1.18,1.29,1.29,0,0,0-1.89,0,1.65,1.65,0,0,0-.37,1.16Z"/><path class="cls-1" d="M60.24,121.06a4.24,4.24,0,0,1-1.22.76,3.54,3.54,0,0,1-1.26.22A2.45,2.45,0,0,1,56,121.5a1.79,1.79,0,0,1-.6-1.39,1.84,1.84,0,0,1,.23-.9,1.86,1.86,0,0,1,.59-.66,2.77,2.77,0,0,1,.82-.37,8.23,8.23,0,0,1,1-.17,10.41,10.41,0,0,0,2-.39c0-.16,0-.26,0-.3a1.27,1.27,0,0,0-.32-1,1.92,1.92,0,0,0-1.3-.39,2,2,0,0,0-1.19.28,1.73,1.73,0,0,0-.57,1l-1.12-.15a2.78,2.78,0,0,1,.5-1.16,2.19,2.19,0,0,1,1-.68,4.48,4.48,0,0,1,1.53-.24,4,4,0,0,1,1.4.2,1.84,1.84,0,0,1,.79.51,1.8,1.8,0,0,1,.36.78,6.42,6.42,0,0,1,.06,1.05v1.52a16.19,16.19,0,0,0,.07,2,2.56,2.56,0,0,0,.29.81H60.46A2.44,2.44,0,0,1,60.24,121.06Zm-.1-2.55a8.37,8.37,0,0,1-1.87.43,4.32,4.32,0,0,0-1,.23,1,1,0,0,0-.45.37,1,1,0,0,0,.19,1.3,1.49,1.49,0,0,0,1,.3,2.35,2.35,0,0,0,1.17-.29,1.78,1.78,0,0,0,.76-.79,2.76,2.76,0,0,0,.18-1.14Z"/><path class="cls-1" d="M65.56,120.87l.17,1a4.22,4.22,0,0,1-.86.1,2,2,0,0,1-1-.2,1.1,1.1,0,0,1-.48-.52,4.1,4.1,0,0,1-.14-1.35V116h-.84v-.89h.84v-1.67l1.14-.69v2.35h1.15V116H64.41V120a2,2,0,0,0,.06.63.48.48,0,0,0,.2.22.76.76,0,0,0,.39.08A3.69,3.69,0,0,0,65.56,120.87Z"/><path class="cls-1" d="M72.78,120.87l.17,1a4.22,4.22,0,0,1-.86.1,2,2,0,0,1-1-.2,1.1,1.1,0,0,1-.48-.52,4.1,4.1,0,0,1-.14-1.35V116h-.84v-.89h.84v-1.67l1.14-.69v2.35h1.15V116H71.64V120a2,2,0,0,0,.06.63.48.48,0,0,0,.2.22.76.76,0,0,0,.39.08A3.69,3.69,0,0,0,72.78,120.87Z"/><path class="cls-1" d="M73.9,121.89v-9.31H75v3.34a2.55,2.55,0,0,1,2-.93,2.73,2.73,0,0,1,1.3.29,1.73,1.73,0,0,1,.79.82,3.75,3.75,0,0,1,.24,1.51v4.27H78.25v-4.27a1.77,1.77,0,0,0-.37-1.25,1.38,1.38,0,0,0-1.05-.39,1.85,1.85,0,0,0-1,.26,1.49,1.49,0,0,0-.64.71A3.28,3.28,0,0,0,75,118.2v3.69Z"/><path class="cls-1" d="M85.75,119.72l1.18.15a2.88,2.88,0,0,1-1,1.61,3.5,3.5,0,0,1-4.27-.34,3.56,3.56,0,0,1-.87-2.55,3.72,3.72,0,0,1,.88-2.64A3,3,0,0,1,83.9,115a2.88,2.88,0,0,1,2.21.92,3.66,3.66,0,0,1,.86,2.59c0,.07,0,.17,0,.3h-5a2.59,2.59,0,0,0,.63,1.7,1.87,1.87,0,0,0,1.41.59,1.75,1.75,0,0,0,1.07-.33A2.2,2.2,0,0,0,85.75,119.72ZM82,117.87h3.76a2.28,2.28,0,0,0-.43-1.28,1.75,1.75,0,0,0-1.42-.66,1.82,1.82,0,0,0-1.32.53A2.08,2.08,0,0,0,82,117.87Z"/><path class="cls-1" d="M96.39,121.89v-1A2.47,2.47,0,0,1,94.25,122a2.73,2.73,0,0,1-1.11-.23,1.83,1.83,0,0,1-.77-.57,2.15,2.15,0,0,1-.35-.85,5.78,5.78,0,0,1-.07-1.07v-4.18h1.14v3.74a6.65,6.65,0,0,0,.07,1.21,1.19,1.19,0,0,0,.46.71,1.41,1.41,0,0,0,.86.26,1.88,1.88,0,0,0,1-.26,1.46,1.46,0,0,0,.64-.72,3.59,3.59,0,0,0,.19-1.32v-3.61h1.14v6.74Z"/><path class="cls-1" d="M99.2,121.89v-6.74h1v1a2.43,2.43,0,0,1,2.15-1.11,2.82,2.82,0,0,1,1.12.22,1.76,1.76,0,0,1,.76.57,2.21,2.21,0,0,1,.36.84,6.58,6.58,0,0,1,.06,1.11v4.15h-1.14v-4.1a3,3,0,0,0-.13-1,1.09,1.09,0,0,0-.47-.55,1.51,1.51,0,0,0-.8-.21,1.85,1.85,0,0,0-1.26.46,2.29,2.29,0,0,0-.53,1.76v3.68Z"/><path class="cls-1" d="M106.44,113.9v-1.31h1.14v1.31Zm0,8v-6.74h1.14v6.74Z"/><path class="cls-1" d="M111.19,121.89l-2.56-6.74h1.21l1.45,4q.23.65.43,1.36.15-.53.43-1.28l1.5-4.11h1.17l-2.55,6.74Z"/><path class="cls-1" d="M120.44,119.72l1.18.15a2.88,2.88,0,0,1-1,1.61,3.5,3.5,0,0,1-4.27-.34,3.56,3.56,0,0,1-.87-2.55,3.72,3.72,0,0,1,.88-2.64,3,3,0,0,1,2.27-.94,2.88,2.88,0,0,1,2.21.92,3.66,3.66,0,0,1,.86,2.59c0,.07,0,.17,0,.3h-5a2.59,2.59,0,0,0,.63,1.7,1.87,1.87,0,0,0,1.41.59,1.75,1.75,0,0,0,1.07-.33A2.2,2.2,0,0,0,120.44,119.72Zm-3.75-1.85h3.76a2.28,2.28,0,0,0-.43-1.28,1.75,1.75,0,0,0-1.42-.66,1.82,1.82,0,0,0-1.32.53A2.08,2.08,0,0,0,116.69,117.87Z"/><path class="cls-1" d="M123,121.89v-6.74h1v1a2.78,2.78,0,0,1,.73-.95,1.27,1.27,0,0,1,.73-.23,2.23,2.23,0,0,1,1.17.37l-.39,1.06a1.63,1.63,0,0,0-.84-.25,1.09,1.09,0,0,0-.67.23,1.21,1.21,0,0,0-.42.63,4.45,4.45,0,0,0-.19,1.33v3.53Z"/><path class="cls-1" d="M126.92,119.88l1.13-.18a1.58,1.58,0,0,0,.53,1,1.85,1.85,0,0,0,1.22.36,1.79,1.79,0,0,0,1.17-.32,1,1,0,0,0,.38-.75.69.69,0,0,0-.34-.61,5,5,0,0,0-1.17-.39,10.7,10.7,0,0,1-1.74-.55,1.67,1.67,0,0,1-1-1.55,1.74,1.74,0,0,1,.21-.83,1.85,1.85,0,0,1,.56-.64,2.35,2.35,0,0,1,.73-.33,3.44,3.44,0,0,1,1-.14,3.9,3.9,0,0,1,1.39.23,1.9,1.9,0,0,1,.89.62,2.42,2.42,0,0,1,.39,1l-1.12.15a1.22,1.22,0,0,0-.44-.81,1.61,1.61,0,0,0-1-.29,1.87,1.87,0,0,0-1.12.26.76.76,0,0,0-.34.61.63.63,0,0,0,.14.4,1,1,0,0,0,.44.3l1,.29a14,14,0,0,1,1.69.53,1.71,1.71,0,0,1,.75.6,1.68,1.68,0,0,1,.27,1,1.92,1.92,0,0,1-.33,1.08,2.15,2.15,0,0,1-1,.78,3.49,3.49,0,0,1-1.42.28,3.17,3.17,0,0,1-2-.55A2.54,2.54,0,0,1,126.92,119.88Z"/><path class="cls-1" d="M133.89,113.9v-1.31H135v1.31Zm0,8v-6.74H135v6.74Z"/><path class="cls-1" d="M139.26,120.87l.17,1a4.22,4.22,0,0,1-.86.1,2,2,0,0,1-1-.2,1.1,1.1,0,0,1-.48-.52,4.1,4.1,0,0,1-.14-1.35V116h-.84v-.89H137v-1.67l1.14-.69v2.35h1.15V116h-1.15V120a2,2,0,0,0,.06.63.48.48,0,0,0,.2.22.76.76,0,0,0,.39.08A3.69,3.69,0,0,0,139.26,120.87Z"/><path class="cls-1" d="M140.33,124.49l-.13-1.07a2.53,2.53,0,0,0,.65.1,1.26,1.26,0,0,0,.61-.13,1,1,0,0,0,.37-.36,5.59,5.59,0,0,0,.35-.85l.1-.28-2.56-6.75H141l1.4,3.9q.27.74.49,1.56a15.38,15.38,0,0,1,.47-1.54l1.44-3.93h1.14L143.35,122a13.48,13.48,0,0,1-.64,1.53,2.26,2.26,0,0,1-.7.83,1.65,1.65,0,0,1-.94.26A2.28,2.28,0,0,1,140.33,124.49Z"/></g></g></svg>