<?xml version="1.0" encoding="utf-8"?>
<!-- Generator: Adobe Illustrator 21.0.0, SVG Export Plug-In . SVG Version: 6.00 Build 0)  -->
<svg version="1.1" id="圖層_1" xmlns="http://www.w3.org/2000/svg" xmlns:xlink="http://www.w3.org/1999/xlink" x="0px" y="0px"
	 viewBox="0 0 1513.2 470.4" style="enable-background:new 0 0 1513.2 470.4;" xml:space="preserve">
<style type="text/css">
	.st0{fill:url(#SVGID_1_);}
	.st1{fill:url(#SVGID_2_);}
</style>
<title>資產 55</title>
<linearGradient id="SVGID_1_" gradientUnits="userSpaceOnUse" x1="1299.0023" y1="-1718.9507" x2="1380.7938" y2="-1700.2555" gradientTransform="matrix(1 0 0 1 0 1737.7998)">
	<stop  offset="0" style="stop-color:#FFFF25"/>
	<stop  offset="0.28" style="stop-color:#ECBC40"/>
	<stop  offset="0.53" style="stop-color:#DB8058"/>
	<stop  offset="1" style="stop-color:#BB1284"/>
</linearGradient>
<circle class="st0" cx="1331.6" cy="26.3" r="26.3"/>
<linearGradient id="SVGID_2_" gradientUnits="userSpaceOnUse" x1="345.736" y1="-1281.3695" x2="1067.0437" y2="-1404.7814" gradientTransform="matrix(1 0 0 1 0 1737.7998)">
	<stop  offset="0" style="stop-color:#9CCA76"/>
	<stop  offset="3.000000e-02" style="stop-color:#B7AD7D"/>
	<stop  offset="8.000000e-02" style="stop-color:#D09384"/>
	<stop  offset="0.12" style="stop-color:#E38089"/>
	<stop  offset="0.16" style="stop-color:#ED758C"/>
	<stop  offset="0.21" style="stop-color:#F1718D"/>
	<stop  offset="0.3" style="stop-color:#83B9D0"/>
	<stop  offset="0.47" style="stop-color:#F7EF81"/>
	<stop  offset="0.64" style="stop-color:#F1718D"/>
	<stop  offset="1" style="stop-color:#F7EF81"/>
</linearGradient>
<path class="st1" d="M501.3,414.5h-0.5c-6.3,0-12.5,2.1-17.4,6.1c-0.6,0.6-1.3,1.2-2,1.8c-8.3,6.6-19.6,7.9-29.2,3.5
	c-4.1-1.9-7.1-5.5-11-7.7c-4.2-2.4-9-3.6-13.8-3.6c-6.3,0-12.5,2.2-17.4,6.1c-0.5,0.5-1.1,1-1.7,1.5c-4.9,4-11.1,6.1-17.5,6.1
	c-6.7,0-12.9-1.7-17.8-6.3c-5.1-4.7-11.7-7.4-18.6-7.4H354c-15.4,0-27.9,12.5-27.9,27.9s12.5,27.9,27.9,27.9h0.4
	c1.4-0.4,3.3-0.2,4.9-0.5c1.7-0.4,3.3-0.9,4.9-1.6c3.2-1.4,6.2-3.2,8.9-5.3c5.5-3.9,11.7-6.5,18.6-6.5c5.1,0,10,1.4,14.3,4
	c3.1,1.9,5.4,5.1,8.6,6.9c3.9,2.1,8.3,3.1,12.8,3c4.5,0,8.9-1,12.9-3.1c3.7-2,6.5-5.2,10.4-7.1c4.4-2.2,9.3-3.5,14.3-3.6
	c5.3,0,10.6,1.5,15,4.4c2.1,1.4,4.1,3,5.8,4.9c4.5,2.9,9.7,4.4,15.1,4.4h0.5c15.4-0.3,27.7-13,27.4-28.4
	C528.5,427,516.4,414.8,501.3,414.5L501.3,414.5z"/>
</svg>
