<?xml version="1.0" encoding="utf-8"?>
<!-- Generator: Adobe Illustrator 21.0.0, SVG Export Plug-In . SVG Version: 6.00 Build 0)  -->
<svg version="1.1" id="圖層_1" xmlns="http://www.w3.org/2000/svg" xmlns:xlink="http://www.w3.org/1999/xlink" x="0px" y="0px"
	 viewBox="0 0 1513.2 471.2" style="enable-background:new 0 0 1513.2 471.2;" xml:space="preserve">
<style type="text/css">
	.st0{fill:url(#SVGID_1_);}
	.st1{fill:url(#SVGID_2_);}
</style>
<title>資產 55</title>
<linearGradient id="SVGID_1_" gradientUnits="userSpaceOnUse" x1="-1968.6771" y1="646.9875" x2="-2205.9272" y2="152.8808" gradientTransform="matrix(0.3269 0.9451 0.9451 -0.3269 395.0071 2503.1116)">
	<stop  offset="0" style="stop-color:#9CCA76"/>
	<stop  offset="3.000000e-02" style="stop-color:#B7AD7D"/>
	<stop  offset="8.000000e-02" style="stop-color:#D09384"/>
	<stop  offset="0.12" style="stop-color:#E38089"/>
	<stop  offset="0.16" style="stop-color:#ED758C"/>
	<stop  offset="0.21" style="stop-color:#F1718D"/>
	<stop  offset="0.3" style="stop-color:#83B9D0"/>
	<stop  offset="0.47" style="stop-color:#F7EF81"/>
	<stop  offset="0.64" style="stop-color:#F1718D"/>
	<stop  offset="1" style="stop-color:#F7EF81"/>
</linearGradient>
<path class="st0" d="M242.8,387.7c0,0,20.1-27.3,44.5-3.4c2.1,2.9,3.9,6,5.5,9.2c2,4.4,13.1,16.7,19.9,20.3
	c6.8,3.6,16.9,6.1,20.1,8.7s15.2,11.8,11.1,29.4c0,0-4.3,19.5-27.9,19.3c0,0-43.3-6.7-70.9-54.3c0,0-9.7-13.9-3.4-27.2L242.8,387.7z
	"/>
<linearGradient id="SVGID_2_" gradientUnits="userSpaceOnUse" x1="476.1795" y1="4405.9341" x2="557.9632" y2="4387.2388" gradientTransform="matrix(1 0 0 -1 0 4424.7998)">
	<stop  offset="0" style="stop-color:#FFFF25"/>
	<stop  offset="0.28" style="stop-color:#ECBC40"/>
	<stop  offset="0.53" style="stop-color:#DB8058"/>
	<stop  offset="1" style="stop-color:#BB1284"/>
</linearGradient>
<circle class="st1" cx="508.7" cy="26.3" r="26.3"/>
</svg>
